<mxfile host="app.diagrams.net" modified="2023-10-29T12:21:17.736Z" agent="Mozilla/5.0 (Macintosh; Intel Mac OS X 10_15_7) AppleWebKit/605.1.15 (KHTML, like Gecko) Version/16.6 Safari/605.1.15" etag="4i1_6DFKnjq0Vqvq2p-o" version="22.0.8" type="github">
  <diagram name="Page-1" id="gmUgVFKARMompz8cBliH">
    <mxGraphModel dx="5965" dy="4604" grid="1" gridSize="10" guides="1" tooltips="1" connect="1" arrows="1" fold="1" page="1" pageScale="1" pageWidth="827" pageHeight="1169" math="0" shadow="0">
      <root>
        <mxCell id="0" />
        <mxCell id="1" parent="0" />
        <mxCell id="A9qcc2CKMqSuFty0r8bE-4" value="" style="rounded=0;whiteSpace=wrap;html=1;" vertex="1" parent="1">
          <mxGeometry x="3435" y="630" width="640" height="370" as="geometry" />
        </mxCell>
        <mxCell id="A9qcc2CKMqSuFty0r8bE-5" value="" style="rounded=0;whiteSpace=wrap;html=1;" vertex="1" parent="1">
          <mxGeometry x="80" y="110" width="640" height="370" as="geometry" />
        </mxCell>
        <mxCell id="A9qcc2CKMqSuFty0r8bE-6" value="help" style="rounded=1;whiteSpace=wrap;html=1;" vertex="1" parent="1">
          <mxGeometry x="610" y="130" width="90" height="30" as="geometry" />
        </mxCell>
        <mxCell id="A9qcc2CKMqSuFty0r8bE-7" value="name" style="text;html=1;strokeColor=none;fillColor=none;align=center;verticalAlign=middle;whiteSpace=wrap;rounded=0;" vertex="1" parent="1">
          <mxGeometry x="363.25" y="130" width="60" height="30" as="geometry" />
        </mxCell>
        <mxCell id="A9qcc2CKMqSuFty0r8bE-8" value="sign in" style="rounded=1;whiteSpace=wrap;html=1;" vertex="1" parent="1">
          <mxGeometry x="307" y="240" width="186" height="40" as="geometry" />
        </mxCell>
        <mxCell id="A9qcc2CKMqSuFty0r8bE-9" value="sign up" style="rounded=1;whiteSpace=wrap;html=1;" vertex="1" parent="1">
          <mxGeometry x="307" y="330" width="186" height="40" as="geometry" />
        </mxCell>
        <mxCell id="A9qcc2CKMqSuFty0r8bE-10" value="if you do not have an account&amp;nbsp;" style="text;html=1;strokeColor=none;fillColor=none;align=center;verticalAlign=middle;whiteSpace=wrap;rounded=0;" vertex="1" parent="1">
          <mxGeometry x="300" y="290" width="200" height="30" as="geometry" />
        </mxCell>
        <mxCell id="A9qcc2CKMqSuFty0r8bE-11" value="&amp;nbsp; &amp;nbsp; &amp;nbsp; &amp;nbsp; &amp;nbsp; &amp;nbsp; &amp;nbsp; &amp;nbsp; &amp;nbsp; &amp;nbsp; &amp;nbsp; &amp;nbsp; &amp;nbsp; &amp;nbsp; &amp;nbsp; &amp;nbsp; &amp;nbsp; &amp;nbsp; &amp;nbsp; &amp;nbsp; &amp;nbsp; &amp;nbsp; &amp;nbsp; &amp;nbsp; &amp;nbsp;&lt;span style=&quot;white-space: pre;&quot;&gt;&#x9;&lt;/span&gt;&lt;span style=&quot;white-space: pre;&quot;&gt;&#x9;&lt;/span&gt;&lt;span style=&quot;white-space: pre;&quot;&gt;&#x9;&lt;/span&gt;&lt;span style=&quot;white-space: pre;&quot;&gt;&#x9;&lt;/span&gt;" style="rounded=0;whiteSpace=wrap;html=1;" vertex="1" parent="1">
          <mxGeometry x="85" y="-420" width="640" height="370" as="geometry" />
        </mxCell>
        <mxCell id="A9qcc2CKMqSuFty0r8bE-12" value="help" style="rounded=1;whiteSpace=wrap;html=1;" vertex="1" parent="1">
          <mxGeometry x="615" y="-400" width="90" height="30" as="geometry" />
        </mxCell>
        <mxCell id="A9qcc2CKMqSuFty0r8bE-13" value="name" style="text;html=1;strokeColor=none;fillColor=none;align=center;verticalAlign=middle;whiteSpace=wrap;rounded=0;" vertex="1" parent="1">
          <mxGeometry x="375" y="-400" width="60" height="30" as="geometry" />
        </mxCell>
        <mxCell id="A9qcc2CKMqSuFty0r8bE-14" value="&lt;font style=&quot;font-size: 16px;&quot;&gt;the first page&lt;/font&gt;" style="text;html=1;strokeColor=none;fillColor=none;align=center;verticalAlign=middle;whiteSpace=wrap;rounded=0;" vertex="1" parent="1">
          <mxGeometry x="335" y="70" width="130" height="30" as="geometry" />
        </mxCell>
        <mxCell id="A9qcc2CKMqSuFty0r8bE-15" value="&lt;font style=&quot;font-size: 16px;&quot;&gt;user chooses sign in&lt;/font&gt;" style="text;html=1;strokeColor=none;fillColor=none;align=center;verticalAlign=middle;whiteSpace=wrap;rounded=0;" vertex="1" parent="1">
          <mxGeometry x="323.25" y="-457" width="160" height="30" as="geometry" />
        </mxCell>
        <mxCell id="A9qcc2CKMqSuFty0r8bE-16" value="Please enter&amp;nbsp;" style="text;html=1;strokeColor=none;fillColor=none;align=center;verticalAlign=middle;whiteSpace=wrap;rounded=0;" vertex="1" parent="1">
          <mxGeometry x="330" y="-300" width="150" height="30" as="geometry" />
        </mxCell>
        <mxCell id="A9qcc2CKMqSuFty0r8bE-17" value="" style="rounded=0;whiteSpace=wrap;html=1;" vertex="1" parent="1">
          <mxGeometry x="290.5" y="-255" width="229" height="25" as="geometry" />
        </mxCell>
        <mxCell id="A9qcc2CKMqSuFty0r8bE-18" value="" style="rounded=0;whiteSpace=wrap;html=1;" vertex="1" parent="1">
          <mxGeometry x="290.5" y="-210" width="229" height="25" as="geometry" />
        </mxCell>
        <mxCell id="A9qcc2CKMqSuFty0r8bE-19" value="enter" style="rounded=1;whiteSpace=wrap;html=1;" vertex="1" parent="1">
          <mxGeometry x="428.5" y="-160" width="91" height="30" as="geometry" />
        </mxCell>
        <mxCell id="A9qcc2CKMqSuFty0r8bE-20" value="username" style="text;html=1;strokeColor=none;fillColor=none;align=center;verticalAlign=middle;whiteSpace=wrap;rounded=0;" vertex="1" parent="1">
          <mxGeometry x="215" y="-257.5" width="60" height="30" as="geometry" />
        </mxCell>
        <mxCell id="A9qcc2CKMqSuFty0r8bE-21" value="password" style="text;html=1;strokeColor=none;fillColor=none;align=center;verticalAlign=middle;whiteSpace=wrap;rounded=0;" vertex="1" parent="1">
          <mxGeometry x="215" y="-212.5" width="60" height="30" as="geometry" />
        </mxCell>
        <mxCell id="A9qcc2CKMqSuFty0r8bE-22" value="" style="rounded=0;whiteSpace=wrap;html=1;" vertex="1" parent="1">
          <mxGeometry x="85" y="590" width="640" height="370" as="geometry" />
        </mxCell>
        <mxCell id="A9qcc2CKMqSuFty0r8bE-23" value="help" style="rounded=1;whiteSpace=wrap;html=1;" vertex="1" parent="1">
          <mxGeometry x="615" y="610" width="90" height="30" as="geometry" />
        </mxCell>
        <mxCell id="A9qcc2CKMqSuFty0r8bE-24" value="name" style="text;html=1;strokeColor=none;fillColor=none;align=center;verticalAlign=middle;whiteSpace=wrap;rounded=0;" vertex="1" parent="1">
          <mxGeometry x="375" y="610" width="60" height="30" as="geometry" />
        </mxCell>
        <mxCell id="A9qcc2CKMqSuFty0r8bE-25" value="&lt;font style=&quot;font-size: 16px;&quot;&gt;user chooses sign up&lt;/font&gt;" style="text;html=1;strokeColor=none;fillColor=none;align=center;verticalAlign=middle;whiteSpace=wrap;rounded=0;" vertex="1" parent="1">
          <mxGeometry x="325.5" y="555" width="160" height="30" as="geometry" />
        </mxCell>
        <mxCell id="A9qcc2CKMqSuFty0r8bE-26" value="Create" style="text;html=1;strokeColor=none;fillColor=none;align=center;verticalAlign=middle;whiteSpace=wrap;rounded=0;" vertex="1" parent="1">
          <mxGeometry x="330" y="690" width="150" height="30" as="geometry" />
        </mxCell>
        <mxCell id="A9qcc2CKMqSuFty0r8bE-27" value="" style="rounded=0;whiteSpace=wrap;html=1;" vertex="1" parent="1">
          <mxGeometry x="291" y="725" width="229" height="25" as="geometry" />
        </mxCell>
        <mxCell id="A9qcc2CKMqSuFty0r8bE-28" value="" style="rounded=0;whiteSpace=wrap;html=1;" vertex="1" parent="1">
          <mxGeometry x="290.5" y="800" width="229" height="25" as="geometry" />
        </mxCell>
        <mxCell id="A9qcc2CKMqSuFty0r8bE-29" value="enter" style="rounded=1;whiteSpace=wrap;html=1;" vertex="1" parent="1">
          <mxGeometry x="428.5" y="850" width="91" height="30" as="geometry" />
        </mxCell>
        <mxCell id="A9qcc2CKMqSuFty0r8bE-30" value="username" style="text;html=1;strokeColor=none;fillColor=none;align=center;verticalAlign=middle;whiteSpace=wrap;rounded=0;" vertex="1" parent="1">
          <mxGeometry x="215" y="720" width="60" height="30" as="geometry" />
        </mxCell>
        <mxCell id="A9qcc2CKMqSuFty0r8bE-31" value="password" style="text;html=1;strokeColor=none;fillColor=none;align=center;verticalAlign=middle;whiteSpace=wrap;rounded=0;" vertex="1" parent="1">
          <mxGeometry x="215" y="797.5" width="60" height="30" as="geometry" />
        </mxCell>
        <mxCell id="A9qcc2CKMqSuFty0r8bE-32" value="" style="rounded=0;whiteSpace=wrap;html=1;" vertex="1" parent="1">
          <mxGeometry x="2560" y="107.5" width="640" height="370" as="geometry" />
        </mxCell>
        <mxCell id="A9qcc2CKMqSuFty0r8bE-33" value="help" style="rounded=1;whiteSpace=wrap;html=1;" vertex="1" parent="1">
          <mxGeometry x="3085" y="120" width="90" height="30" as="geometry" />
        </mxCell>
        <mxCell id="A9qcc2CKMqSuFty0r8bE-34" value="name" style="text;html=1;strokeColor=none;fillColor=none;align=center;verticalAlign=middle;whiteSpace=wrap;rounded=0;" vertex="1" parent="1">
          <mxGeometry x="2845" y="120" width="60" height="30" as="geometry" />
        </mxCell>
        <mxCell id="A9qcc2CKMqSuFty0r8bE-35" value="&lt;font style=&quot;font-size: 16px;&quot;&gt;main page after authorisation&amp;nbsp;&lt;/font&gt;" style="text;html=1;strokeColor=none;fillColor=none;align=center;verticalAlign=middle;whiteSpace=wrap;rounded=0;" vertex="1" parent="1">
          <mxGeometry x="2759" y="60" width="242" height="30" as="geometry" />
        </mxCell>
        <mxCell id="A9qcc2CKMqSuFty0r8bE-36" value="" style="rounded=0;whiteSpace=wrap;html=1;" vertex="1" parent="1">
          <mxGeometry x="2577.5" y="180" width="585" height="30" as="geometry" />
        </mxCell>
        <mxCell id="A9qcc2CKMqSuFty0r8bE-37" value="Search" style="text;html=1;strokeColor=none;fillColor=none;align=center;verticalAlign=middle;whiteSpace=wrap;rounded=0;" vertex="1" parent="1">
          <mxGeometry x="2575" y="180" width="60" height="30" as="geometry" />
        </mxCell>
        <mxCell id="A9qcc2CKMqSuFty0r8bE-38" value="Filters" style="text;html=1;strokeColor=none;fillColor=none;align=center;verticalAlign=middle;whiteSpace=wrap;rounded=0;" vertex="1" parent="1">
          <mxGeometry x="2577.5" y="232.5" width="60" height="30" as="geometry" />
        </mxCell>
        <mxCell id="A9qcc2CKMqSuFty0r8bE-39" value="Sort by" style="text;html=1;strokeColor=none;fillColor=none;align=center;verticalAlign=middle;whiteSpace=wrap;rounded=0;" vertex="1" parent="1">
          <mxGeometry x="2858" y="232.5" width="60" height="30" as="geometry" />
        </mxCell>
        <mxCell id="A9qcc2CKMqSuFty0r8bE-40" value="Text" style="text;html=1;strokeColor=none;fillColor=none;align=center;verticalAlign=middle;whiteSpace=wrap;rounded=0;" vertex="1" parent="1">
          <mxGeometry x="2592.5" y="260" width="60" height="30" as="geometry" />
        </mxCell>
        <mxCell id="A9qcc2CKMqSuFty0r8bE-41" value="" style="rounded=1;whiteSpace=wrap;html=1;" vertex="1" parent="1">
          <mxGeometry x="2577.5" y="270" width="15" height="10" as="geometry" />
        </mxCell>
        <mxCell id="A9qcc2CKMqSuFty0r8bE-42" value="" style="rounded=1;whiteSpace=wrap;html=1;" vertex="1" parent="1">
          <mxGeometry x="2577.5" y="290" width="15" height="10" as="geometry" />
        </mxCell>
        <mxCell id="A9qcc2CKMqSuFty0r8bE-43" value="" style="rounded=1;whiteSpace=wrap;html=1;" vertex="1" parent="1">
          <mxGeometry x="2577.5" y="310" width="15" height="10" as="geometry" />
        </mxCell>
        <mxCell id="A9qcc2CKMqSuFty0r8bE-44" value="" style="rounded=1;whiteSpace=wrap;html=1;" vertex="1" parent="1">
          <mxGeometry x="2862.5" y="272.5" width="15" height="10" as="geometry" />
        </mxCell>
        <mxCell id="A9qcc2CKMqSuFty0r8bE-45" value="" style="rounded=1;whiteSpace=wrap;html=1;" vertex="1" parent="1">
          <mxGeometry x="2862.5" y="292.5" width="15" height="10" as="geometry" />
        </mxCell>
        <mxCell id="A9qcc2CKMqSuFty0r8bE-46" value="" style="rounded=1;whiteSpace=wrap;html=1;" vertex="1" parent="1">
          <mxGeometry x="2862.5" y="312.5" width="15" height="10" as="geometry" />
        </mxCell>
        <mxCell id="A9qcc2CKMqSuFty0r8bE-47" value="Text" style="text;html=1;strokeColor=none;fillColor=none;align=center;verticalAlign=middle;whiteSpace=wrap;rounded=0;" vertex="1" parent="1">
          <mxGeometry x="2592.5" y="280" width="60" height="30" as="geometry" />
        </mxCell>
        <mxCell id="A9qcc2CKMqSuFty0r8bE-48" value="Text" style="text;html=1;strokeColor=none;fillColor=none;align=center;verticalAlign=middle;whiteSpace=wrap;rounded=0;" vertex="1" parent="1">
          <mxGeometry x="2592.5" y="300" width="60" height="30" as="geometry" />
        </mxCell>
        <mxCell id="A9qcc2CKMqSuFty0r8bE-49" value="Text" style="text;html=1;strokeColor=none;fillColor=none;align=center;verticalAlign=middle;whiteSpace=wrap;rounded=0;" vertex="1" parent="1">
          <mxGeometry x="2877.5" y="302.5" width="60" height="30" as="geometry" />
        </mxCell>
        <mxCell id="A9qcc2CKMqSuFty0r8bE-50" value="Text" style="text;html=1;strokeColor=none;fillColor=none;align=center;verticalAlign=middle;whiteSpace=wrap;rounded=0;" vertex="1" parent="1">
          <mxGeometry x="2877.5" y="282.5" width="60" height="30" as="geometry" />
        </mxCell>
        <mxCell id="A9qcc2CKMqSuFty0r8bE-51" value="Text" style="text;html=1;strokeColor=none;fillColor=none;align=center;verticalAlign=middle;whiteSpace=wrap;rounded=0;" vertex="1" parent="1">
          <mxGeometry x="2877.5" y="262.5" width="60" height="30" as="geometry" />
        </mxCell>
        <mxCell id="A9qcc2CKMqSuFty0r8bE-52" value="" style="rounded=0;whiteSpace=wrap;html=1;" vertex="1" parent="1">
          <mxGeometry x="80" y="1100" width="640" height="370" as="geometry" />
        </mxCell>
        <mxCell id="A9qcc2CKMqSuFty0r8bE-53" value="help" style="rounded=1;whiteSpace=wrap;html=1;" vertex="1" parent="1">
          <mxGeometry x="610" y="1120" width="90" height="30" as="geometry" />
        </mxCell>
        <mxCell id="A9qcc2CKMqSuFty0r8bE-54" value="name" style="text;html=1;strokeColor=none;fillColor=none;align=center;verticalAlign=middle;whiteSpace=wrap;rounded=0;" vertex="1" parent="1">
          <mxGeometry x="370" y="1120" width="60" height="30" as="geometry" />
        </mxCell>
        <mxCell id="A9qcc2CKMqSuFty0r8bE-55" value="&lt;font style=&quot;font-size: 16px;&quot;&gt;user chooses sign up&lt;/font&gt;" style="text;html=1;strokeColor=none;fillColor=none;align=center;verticalAlign=middle;whiteSpace=wrap;rounded=0;" vertex="1" parent="1">
          <mxGeometry x="320" y="1060" width="160" height="30" as="geometry" />
        </mxCell>
        <mxCell id="A9qcc2CKMqSuFty0r8bE-56" value="This username is already exist, try again please" style="text;html=1;strokeColor=none;fillColor=none;align=center;verticalAlign=middle;whiteSpace=wrap;rounded=0;" vertex="1" parent="1">
          <mxGeometry x="325" y="1180" width="150" height="30" as="geometry" />
        </mxCell>
        <mxCell id="A9qcc2CKMqSuFty0r8bE-57" value="" style="rounded=0;whiteSpace=wrap;html=1;" vertex="1" parent="1">
          <mxGeometry x="285.5" y="1222.5" width="229" height="25" as="geometry" />
        </mxCell>
        <mxCell id="A9qcc2CKMqSuFty0r8bE-58" value="" style="rounded=0;whiteSpace=wrap;html=1;" vertex="1" parent="1">
          <mxGeometry x="285.5" y="1310" width="229" height="25" as="geometry" />
        </mxCell>
        <mxCell id="A9qcc2CKMqSuFty0r8bE-59" value="enter" style="rounded=1;whiteSpace=wrap;html=1;" vertex="1" parent="1">
          <mxGeometry x="423.5" y="1360" width="91" height="30" as="geometry" />
        </mxCell>
        <mxCell id="A9qcc2CKMqSuFty0r8bE-60" value="username" style="text;html=1;strokeColor=none;fillColor=none;align=center;verticalAlign=middle;whiteSpace=wrap;rounded=0;" vertex="1" parent="1">
          <mxGeometry x="210" y="1220" width="60" height="30" as="geometry" />
        </mxCell>
        <mxCell id="A9qcc2CKMqSuFty0r8bE-61" value="password" style="text;html=1;strokeColor=none;fillColor=none;align=center;verticalAlign=middle;whiteSpace=wrap;rounded=0;" vertex="1" parent="1">
          <mxGeometry x="210" y="1307.5" width="60" height="30" as="geometry" />
        </mxCell>
        <mxCell id="A9qcc2CKMqSuFty0r8bE-62" value="" style="rounded=0;whiteSpace=wrap;html=1;" vertex="1" parent="1">
          <mxGeometry x="85.5" y="-902" width="640" height="370" as="geometry" />
        </mxCell>
        <mxCell id="A9qcc2CKMqSuFty0r8bE-63" value="help" style="rounded=1;whiteSpace=wrap;html=1;" vertex="1" parent="1">
          <mxGeometry x="615.5" y="-882" width="90" height="30" as="geometry" />
        </mxCell>
        <mxCell id="A9qcc2CKMqSuFty0r8bE-64" value="name" style="text;html=1;strokeColor=none;fillColor=none;align=center;verticalAlign=middle;whiteSpace=wrap;rounded=0;" vertex="1" parent="1">
          <mxGeometry x="375.5" y="-882" width="60" height="30" as="geometry" />
        </mxCell>
        <mxCell id="A9qcc2CKMqSuFty0r8bE-65" value="user chooses sign up" style="text;html=1;strokeColor=none;fillColor=none;align=center;verticalAlign=middle;whiteSpace=wrap;rounded=0;" vertex="1" parent="1">
          <mxGeometry x="346.5" y="-942" width="160" height="30" as="geometry" />
        </mxCell>
        <mxCell id="A9qcc2CKMqSuFty0r8bE-66" value="There is a problem with username or password, try again please" style="text;html=1;strokeColor=none;fillColor=none;align=center;verticalAlign=middle;whiteSpace=wrap;rounded=0;" vertex="1" parent="1">
          <mxGeometry x="308" y="-782" width="195" height="30" as="geometry" />
        </mxCell>
        <mxCell id="A9qcc2CKMqSuFty0r8bE-67" value="" style="rounded=0;whiteSpace=wrap;html=1;" vertex="1" parent="1">
          <mxGeometry x="1171" y="210" width="229" height="25" as="geometry" />
        </mxCell>
        <mxCell id="A9qcc2CKMqSuFty0r8bE-68" value="…" style="rounded=0;whiteSpace=wrap;html=1;" vertex="1" parent="1">
          <mxGeometry x="291" y="-692" width="229" height="25" as="geometry" />
        </mxCell>
        <mxCell id="A9qcc2CKMqSuFty0r8bE-69" value="enter" style="rounded=1;whiteSpace=wrap;html=1;" vertex="1" parent="1">
          <mxGeometry x="429" y="-642" width="91" height="30" as="geometry" />
        </mxCell>
        <mxCell id="A9qcc2CKMqSuFty0r8bE-70" value="username" style="text;html=1;strokeColor=none;fillColor=none;align=center;verticalAlign=middle;whiteSpace=wrap;rounded=0;" vertex="1" parent="1">
          <mxGeometry x="215.5" y="-739.5" width="60" height="30" as="geometry" />
        </mxCell>
        <mxCell id="A9qcc2CKMqSuFty0r8bE-71" value="password" style="text;html=1;strokeColor=none;fillColor=none;align=center;verticalAlign=middle;whiteSpace=wrap;rounded=0;" vertex="1" parent="1">
          <mxGeometry x="215.5" y="-694.5" width="60" height="30" as="geometry" />
        </mxCell>
        <mxCell id="A9qcc2CKMqSuFty0r8bE-72" value="username" style="rounded=1;whiteSpace=wrap;html=1;" vertex="1" parent="1">
          <mxGeometry x="2575" y="120" width="90" height="30" as="geometry" />
        </mxCell>
        <mxCell id="A9qcc2CKMqSuFty0r8bE-73" value="" style="rounded=0;whiteSpace=wrap;html=1;" vertex="1" parent="1">
          <mxGeometry x="2568" y="610" width="640" height="370" as="geometry" />
        </mxCell>
        <mxCell id="A9qcc2CKMqSuFty0r8bE-74" value="help" style="rounded=1;whiteSpace=wrap;html=1;" vertex="1" parent="1">
          <mxGeometry x="3098" y="630" width="90" height="30" as="geometry" />
        </mxCell>
        <mxCell id="A9qcc2CKMqSuFty0r8bE-75" value="name" style="text;html=1;strokeColor=none;fillColor=none;align=center;verticalAlign=middle;whiteSpace=wrap;rounded=0;" vertex="1" parent="1">
          <mxGeometry x="2858" y="630" width="60" height="30" as="geometry" />
        </mxCell>
        <mxCell id="A9qcc2CKMqSuFty0r8bE-76" value="" style="rounded=1;whiteSpace=wrap;html=1;" vertex="1" parent="1">
          <mxGeometry x="2588" y="732.5" width="120" height="150" as="geometry" />
        </mxCell>
        <mxCell id="A9qcc2CKMqSuFty0r8bE-77" value="" style="rounded=1;whiteSpace=wrap;html=1;" vertex="1" parent="1">
          <mxGeometry x="2748" y="737.5" width="120" height="147.5" as="geometry" />
        </mxCell>
        <mxCell id="A9qcc2CKMqSuFty0r8bE-78" value="" style="rounded=1;whiteSpace=wrap;html=1;" vertex="1" parent="1">
          <mxGeometry x="2908" y="737.5" width="120" height="150" as="geometry" />
        </mxCell>
        <mxCell id="A9qcc2CKMqSuFty0r8bE-79" value="username" style="rounded=1;whiteSpace=wrap;html=1;" vertex="1" parent="1">
          <mxGeometry x="2588" y="630" width="90" height="30" as="geometry" />
        </mxCell>
        <mxCell id="A9qcc2CKMqSuFty0r8bE-80" value="&lt;font style=&quot;font-size: 9px;&quot;&gt;next page&lt;/font&gt;" style="rounded=1;whiteSpace=wrap;html=1;" vertex="1" parent="1">
          <mxGeometry x="3128" y="917.5" width="60" height="20" as="geometry" />
        </mxCell>
        <mxCell id="A9qcc2CKMqSuFty0r8bE-81" value="&lt;font style=&quot;font-size: 9px;&quot;&gt;previos page&lt;/font&gt;" style="rounded=1;whiteSpace=wrap;html=1;" vertex="1" parent="1">
          <mxGeometry x="3058" y="917.5" width="60" height="20" as="geometry" />
        </mxCell>
        <mxCell id="A9qcc2CKMqSuFty0r8bE-82" value="back" style="rounded=1;whiteSpace=wrap;html=1;" vertex="1" parent="1">
          <mxGeometry x="2588" y="907.5" width="90" height="30" as="geometry" />
        </mxCell>
        <mxCell id="A9qcc2CKMqSuFty0r8bE-83" value="&lt;font style=&quot;font-size: 19px;&quot;&gt;Results&lt;/font&gt;" style="text;html=1;strokeColor=none;fillColor=none;align=center;verticalAlign=middle;whiteSpace=wrap;rounded=0;strokeWidth=3;" vertex="1" parent="1">
          <mxGeometry x="2858" y="680" width="60" height="30" as="geometry" />
        </mxCell>
        <mxCell id="A9qcc2CKMqSuFty0r8bE-84" value="" style="rounded=1;whiteSpace=wrap;html=1;" vertex="1" parent="1">
          <mxGeometry x="3068" y="737.5" width="120" height="150" as="geometry" />
        </mxCell>
        <mxCell id="A9qcc2CKMqSuFty0r8bE-85" value="" style="rounded=0;whiteSpace=wrap;html=1;" vertex="1" parent="1">
          <mxGeometry x="921" y="110" width="640" height="370" as="geometry" />
        </mxCell>
        <mxCell id="A9qcc2CKMqSuFty0r8bE-86" value="back" style="rounded=1;whiteSpace=wrap;html=1;" vertex="1" parent="1">
          <mxGeometry x="1451" y="130" width="90" height="30" as="geometry" />
        </mxCell>
        <mxCell id="A9qcc2CKMqSuFty0r8bE-87" value="name" style="text;html=1;strokeColor=none;fillColor=none;align=center;verticalAlign=middle;whiteSpace=wrap;rounded=0;" vertex="1" parent="1">
          <mxGeometry x="1211" y="125" width="60" height="30" as="geometry" />
        </mxCell>
        <mxCell id="A9qcc2CKMqSuFty0r8bE-88" value="&lt;font style=&quot;font-size: 16px;&quot;&gt;help center&lt;/font&gt;" style="text;html=1;strokeColor=none;fillColor=none;align=center;verticalAlign=middle;whiteSpace=wrap;rounded=0;" vertex="1" parent="1">
          <mxGeometry x="1161" y="70" width="160" height="30" as="geometry" />
        </mxCell>
        <mxCell id="A9qcc2CKMqSuFty0r8bE-89" value="&lt;font style=&quot;font-size: 16px;&quot;&gt;Help Centre&lt;/font&gt;" style="text;html=1;strokeColor=none;fillColor=none;align=center;verticalAlign=middle;whiteSpace=wrap;rounded=0;" vertex="1" parent="1">
          <mxGeometry x="1166" y="170" width="150" height="30" as="geometry" />
        </mxCell>
        <mxCell id="A9qcc2CKMqSuFty0r8bE-90" value="…" style="rounded=0;whiteSpace=wrap;html=1;" vertex="1" parent="1">
          <mxGeometry x="1171" y="290" width="290" height="136" as="geometry" />
        </mxCell>
        <mxCell id="A9qcc2CKMqSuFty0r8bE-91" value="Please enter your email and describe your problem. &lt;br&gt;&lt;br&gt;Our administrator will help you" style="text;html=1;strokeColor=none;fillColor=none;align=left;verticalAlign=middle;whiteSpace=wrap;rounded=0;" vertex="1" parent="1">
          <mxGeometry x="959.5" y="260" width="151.5" height="120" as="geometry" />
        </mxCell>
        <mxCell id="A9qcc2CKMqSuFty0r8bE-92" value="Heading" style="rounded=0;whiteSpace=wrap;html=1;" vertex="1" parent="1">
          <mxGeometry x="1171" y="240" width="229" height="25" as="geometry" />
        </mxCell>
        <mxCell id="A9qcc2CKMqSuFty0r8bE-93" value="&lt;font style=&quot;font-size: 16px;&quot;&gt;user tries to search&lt;/font&gt;" style="text;html=1;strokeColor=none;fillColor=none;align=center;verticalAlign=middle;whiteSpace=wrap;rounded=0;" vertex="1" parent="1">
          <mxGeometry x="2808" y="570" width="170" height="30" as="geometry" />
        </mxCell>
        <mxCell id="A9qcc2CKMqSuFty0r8bE-94" value="" style="rounded=0;whiteSpace=wrap;html=1;" vertex="1" parent="1">
          <mxGeometry x="3442.5" y="107.5" width="640" height="370" as="geometry" />
        </mxCell>
        <mxCell id="A9qcc2CKMqSuFty0r8bE-95" value="&lt;font style=&quot;font-size: 16px;&quot;&gt;user chooses administrator option&lt;/font&gt;" style="text;html=1;align=center;verticalAlign=middle;resizable=0;points=[];autosize=1;strokeColor=none;fillColor=none;" vertex="1" parent="1">
          <mxGeometry x="3632.5" y="67.5" width="260" height="30" as="geometry" />
        </mxCell>
        <mxCell id="A9qcc2CKMqSuFty0r8bE-96" value="username" style="rounded=1;whiteSpace=wrap;html=1;" vertex="1" parent="1">
          <mxGeometry x="3462.5" y="127.5" width="90" height="30" as="geometry" />
        </mxCell>
        <mxCell id="A9qcc2CKMqSuFty0r8bE-97" value="View Records" style="rounded=1;whiteSpace=wrap;html=1;" vertex="1" parent="1">
          <mxGeometry x="3515" y="270" width="100" height="35" as="geometry" />
        </mxCell>
        <mxCell id="A9qcc2CKMqSuFty0r8bE-98" value="Maintain Data" style="text;html=1;align=center;verticalAlign=middle;resizable=0;points=[];autosize=1;strokeColor=none;fillColor=none;fontStyle=1" vertex="1" parent="1">
          <mxGeometry x="3515" y="220" width="100" height="30" as="geometry" />
        </mxCell>
        <mxCell id="A9qcc2CKMqSuFty0r8bE-99" value="Maintain Staff Access" style="text;html=1;align=center;verticalAlign=middle;resizable=0;points=[];autosize=1;strokeColor=none;fillColor=none;fontStyle=1" vertex="1" parent="1">
          <mxGeometry x="3687" y="222.5" width="150" height="30" as="geometry" />
        </mxCell>
        <mxCell id="A9qcc2CKMqSuFty0r8bE-100" value="View help requests" style="rounded=1;whiteSpace=wrap;html=1;" vertex="1" parent="1">
          <mxGeometry x="3942.5" y="127.5" width="120" height="35" as="geometry" />
        </mxCell>
        <mxCell id="A9qcc2CKMqSuFty0r8bE-101" value="" style="rounded=0;whiteSpace=wrap;html=1;" vertex="1" parent="1">
          <mxGeometry x="4228" y="110" width="640" height="370" as="geometry" />
        </mxCell>
        <mxCell id="A9qcc2CKMqSuFty0r8bE-102" value="&lt;font style=&quot;font-size: 16px;&quot;&gt;admin views help requests&lt;/font&gt;" style="text;html=1;align=center;verticalAlign=middle;resizable=0;points=[];autosize=1;strokeColor=none;fillColor=none;" vertex="1" parent="1">
          <mxGeometry x="4458" y="60" width="210" height="30" as="geometry" />
        </mxCell>
        <mxCell id="A9qcc2CKMqSuFty0r8bE-103" value="username" style="rounded=1;whiteSpace=wrap;html=1;" vertex="1" parent="1">
          <mxGeometry x="4268" y="120" width="90" height="30" as="geometry" />
        </mxCell>
        <mxCell id="A9qcc2CKMqSuFty0r8bE-104" value="Back" style="rounded=1;whiteSpace=wrap;html=1;" vertex="1" parent="1">
          <mxGeometry x="4246" y="430" width="90" height="30" as="geometry" />
        </mxCell>
        <mxCell id="A9qcc2CKMqSuFty0r8bE-105" value="#####" style="rounded=0;whiteSpace=wrap;html=1;" vertex="1" parent="1">
          <mxGeometry x="4263" y="190" width="45" height="40" as="geometry" />
        </mxCell>
        <mxCell id="A9qcc2CKMqSuFty0r8bE-106" value="Staff Member: help request description" style="rounded=0;whiteSpace=wrap;html=1;align=left;" vertex="1" parent="1">
          <mxGeometry x="4368" y="190" width="280" height="40" as="geometry" />
        </mxCell>
        <mxCell id="A9qcc2CKMqSuFty0r8bE-107" value="View" style="rounded=0;whiteSpace=wrap;html=1;" vertex="1" parent="1">
          <mxGeometry x="4648" y="190" width="40" height="40" as="geometry" />
        </mxCell>
        <mxCell id="A9qcc2CKMqSuFty0r8bE-108" value="Change Status" style="rounded=0;whiteSpace=wrap;html=1;" vertex="1" parent="1">
          <mxGeometry x="4688" y="190" width="90" height="40" as="geometry" />
        </mxCell>
        <mxCell id="A9qcc2CKMqSuFty0r8bE-109" value="Delete" style="rounded=0;whiteSpace=wrap;html=1;" vertex="1" parent="1">
          <mxGeometry x="4778" y="190" width="50" height="40" as="geometry" />
        </mxCell>
        <mxCell id="A9qcc2CKMqSuFty0r8bE-110" value="Filter" style="rounded=1;whiteSpace=wrap;html=1;" vertex="1" parent="1">
          <mxGeometry x="4710" y="125" width="60" height="40" as="geometry" />
        </mxCell>
        <mxCell id="A9qcc2CKMqSuFty0r8bE-111" value="Sort" style="rounded=1;whiteSpace=wrap;html=1;" vertex="1" parent="1">
          <mxGeometry x="4788" y="125" width="60" height="40" as="geometry" />
        </mxCell>
        <mxCell id="A9qcc2CKMqSuFty0r8bE-112" value="#####" style="rounded=0;whiteSpace=wrap;html=1;" vertex="1" parent="1">
          <mxGeometry x="4263" y="247.5" width="45" height="40" as="geometry" />
        </mxCell>
        <mxCell id="A9qcc2CKMqSuFty0r8bE-113" value="Staff Member: help request description" style="rounded=0;whiteSpace=wrap;html=1;align=left;" vertex="1" parent="1">
          <mxGeometry x="4368" y="247.5" width="280" height="40" as="geometry" />
        </mxCell>
        <mxCell id="A9qcc2CKMqSuFty0r8bE-114" value="View" style="rounded=0;whiteSpace=wrap;html=1;" vertex="1" parent="1">
          <mxGeometry x="4648" y="247.5" width="40" height="40" as="geometry" />
        </mxCell>
        <mxCell id="A9qcc2CKMqSuFty0r8bE-115" value="Change Status" style="rounded=0;whiteSpace=wrap;html=1;" vertex="1" parent="1">
          <mxGeometry x="4688" y="247.5" width="90" height="40" as="geometry" />
        </mxCell>
        <mxCell id="A9qcc2CKMqSuFty0r8bE-116" value="Delete" style="rounded=0;whiteSpace=wrap;html=1;" vertex="1" parent="1">
          <mxGeometry x="4778" y="247.5" width="50" height="40" as="geometry" />
        </mxCell>
        <mxCell id="A9qcc2CKMqSuFty0r8bE-117" value="#####" style="rounded=0;whiteSpace=wrap;html=1;" vertex="1" parent="1">
          <mxGeometry x="4263" y="305" width="45" height="40" as="geometry" />
        </mxCell>
        <mxCell id="A9qcc2CKMqSuFty0r8bE-118" value="Staff Member: help request description" style="rounded=0;whiteSpace=wrap;html=1;align=left;" vertex="1" parent="1">
          <mxGeometry x="4368" y="305" width="280" height="40" as="geometry" />
        </mxCell>
        <mxCell id="A9qcc2CKMqSuFty0r8bE-119" value="View" style="rounded=0;whiteSpace=wrap;html=1;" vertex="1" parent="1">
          <mxGeometry x="4648" y="305" width="40" height="40" as="geometry" />
        </mxCell>
        <mxCell id="A9qcc2CKMqSuFty0r8bE-120" value="Change Status" style="rounded=0;whiteSpace=wrap;html=1;" vertex="1" parent="1">
          <mxGeometry x="4688" y="305" width="90" height="40" as="geometry" />
        </mxCell>
        <mxCell id="A9qcc2CKMqSuFty0r8bE-121" value="Delete" style="rounded=0;whiteSpace=wrap;html=1;" vertex="1" parent="1">
          <mxGeometry x="4778" y="305" width="50" height="40" as="geometry" />
        </mxCell>
        <mxCell id="A9qcc2CKMqSuFty0r8bE-122" value="Status" style="rounded=0;whiteSpace=wrap;html=1;" vertex="1" parent="1">
          <mxGeometry x="4308" y="190" width="60" height="40" as="geometry" />
        </mxCell>
        <mxCell id="A9qcc2CKMqSuFty0r8bE-123" value="Status" style="rounded=0;whiteSpace=wrap;html=1;" vertex="1" parent="1">
          <mxGeometry x="4308" y="247.5" width="60" height="40" as="geometry" />
        </mxCell>
        <mxCell id="A9qcc2CKMqSuFty0r8bE-124" value="Status" style="rounded=0;whiteSpace=wrap;html=1;" vertex="1" parent="1">
          <mxGeometry x="4308" y="305" width="60" height="40" as="geometry" />
        </mxCell>
        <mxCell id="A9qcc2CKMqSuFty0r8bE-125" value="#####" style="rounded=0;whiteSpace=wrap;html=1;" vertex="1" parent="1">
          <mxGeometry x="4263" y="360" width="45" height="40" as="geometry" />
        </mxCell>
        <mxCell id="A9qcc2CKMqSuFty0r8bE-126" value="Staff Member: help request description" style="rounded=0;whiteSpace=wrap;html=1;align=left;" vertex="1" parent="1">
          <mxGeometry x="4368" y="360" width="280" height="40" as="geometry" />
        </mxCell>
        <mxCell id="A9qcc2CKMqSuFty0r8bE-127" value="View" style="rounded=0;whiteSpace=wrap;html=1;" vertex="1" parent="1">
          <mxGeometry x="4648" y="360" width="40" height="40" as="geometry" />
        </mxCell>
        <mxCell id="A9qcc2CKMqSuFty0r8bE-128" value="Change Status" style="rounded=0;whiteSpace=wrap;html=1;" vertex="1" parent="1">
          <mxGeometry x="4688" y="360" width="90" height="40" as="geometry" />
        </mxCell>
        <mxCell id="A9qcc2CKMqSuFty0r8bE-129" value="Delete" style="rounded=0;whiteSpace=wrap;html=1;" vertex="1" parent="1">
          <mxGeometry x="4778" y="360" width="50" height="40" as="geometry" />
        </mxCell>
        <mxCell id="A9qcc2CKMqSuFty0r8bE-130" value="Status" style="rounded=0;whiteSpace=wrap;html=1;" vertex="1" parent="1">
          <mxGeometry x="4308" y="360" width="60" height="40" as="geometry" />
        </mxCell>
        <mxCell id="A9qcc2CKMqSuFty0r8bE-131" value="" style="rounded=1;whiteSpace=wrap;html=1;" vertex="1" parent="1">
          <mxGeometry x="4848" y="190" width="10" height="210" as="geometry" />
        </mxCell>
        <mxCell id="A9qcc2CKMqSuFty0r8bE-132" value="" style="rounded=1;whiteSpace=wrap;html=1;arcSize=50;fillColor=#CCCCCC;" vertex="1" parent="1">
          <mxGeometry x="4848" y="190" width="10" height="15" as="geometry" />
        </mxCell>
        <mxCell id="A9qcc2CKMqSuFty0r8bE-133" value="username" style="rounded=1;whiteSpace=wrap;html=1;" vertex="1" parent="1">
          <mxGeometry x="3455" y="640" width="90" height="30" as="geometry" />
        </mxCell>
        <mxCell id="A9qcc2CKMqSuFty0r8bE-134" value="" style="rounded=0;whiteSpace=wrap;html=1;fontSize=16;" vertex="1" parent="1">
          <mxGeometry x="3495" y="720" width="520" height="40" as="geometry" />
        </mxCell>
        <mxCell id="A9qcc2CKMqSuFty0r8bE-135" value="" style="rounded=0;whiteSpace=wrap;html=1;fontSize=16;" vertex="1" parent="1">
          <mxGeometry x="3495" y="780" width="520" height="40" as="geometry" />
        </mxCell>
        <mxCell id="A9qcc2CKMqSuFty0r8bE-136" value="" style="rounded=0;whiteSpace=wrap;html=1;fontSize=16;" vertex="1" parent="1">
          <mxGeometry x="3495" y="842.5" width="520" height="40" as="geometry" />
        </mxCell>
        <mxCell id="A9qcc2CKMqSuFty0r8bE-137" value="" style="rounded=0;whiteSpace=wrap;html=1;fontSize=16;" vertex="1" parent="1">
          <mxGeometry x="3495" y="905" width="520" height="35" as="geometry" />
        </mxCell>
        <mxCell id="A9qcc2CKMqSuFty0r8bE-138" value="" style="rounded=0;whiteSpace=wrap;html=1;fontSize=16;" vertex="1" parent="1">
          <mxGeometry x="3495" y="720" width="100" height="40" as="geometry" />
        </mxCell>
        <mxCell id="A9qcc2CKMqSuFty0r8bE-139" value="" style="rounded=0;whiteSpace=wrap;html=1;fontSize=16;" vertex="1" parent="1">
          <mxGeometry x="3495" y="780" width="100" height="40" as="geometry" />
        </mxCell>
        <mxCell id="A9qcc2CKMqSuFty0r8bE-140" value="" style="rounded=0;whiteSpace=wrap;html=1;fontSize=16;" vertex="1" parent="1">
          <mxGeometry x="3495" y="842.5" width="100" height="40" as="geometry" />
        </mxCell>
        <mxCell id="A9qcc2CKMqSuFty0r8bE-141" value="" style="rounded=0;whiteSpace=wrap;html=1;fontSize=16;" vertex="1" parent="1">
          <mxGeometry x="3495" y="905" width="100" height="35" as="geometry" />
        </mxCell>
        <mxCell id="A9qcc2CKMqSuFty0r8bE-142" value="####" style="text;html=1;strokeColor=none;fillColor=none;align=center;verticalAlign=middle;whiteSpace=wrap;rounded=0;fontSize=16;" vertex="1" parent="1">
          <mxGeometry x="3515" y="645" width="60" height="190" as="geometry" />
        </mxCell>
        <mxCell id="A9qcc2CKMqSuFty0r8bE-143" value="####" style="text;html=1;strokeColor=none;fillColor=none;align=center;verticalAlign=middle;whiteSpace=wrap;rounded=0;fontSize=16;" vertex="1" parent="1">
          <mxGeometry x="3515" y="705" width="60" height="190" as="geometry" />
        </mxCell>
        <mxCell id="A9qcc2CKMqSuFty0r8bE-144" value="####" style="text;html=1;strokeColor=none;fillColor=none;align=center;verticalAlign=middle;whiteSpace=wrap;rounded=0;fontSize=16;" vertex="1" parent="1">
          <mxGeometry x="3515" y="770" width="60" height="190" as="geometry" />
        </mxCell>
        <mxCell id="A9qcc2CKMqSuFty0r8bE-145" value="####" style="text;html=1;strokeColor=none;fillColor=none;align=center;verticalAlign=middle;whiteSpace=wrap;rounded=0;fontSize=16;" vertex="1" parent="1">
          <mxGeometry x="3515" y="830" width="60" height="190" as="geometry" />
        </mxCell>
        <mxCell id="A9qcc2CKMqSuFty0r8bE-146" value="Status" style="rounded=0;whiteSpace=wrap;html=1;fontSize=16;" vertex="1" parent="1">
          <mxGeometry x="3595" y="720" width="80" height="40" as="geometry" />
        </mxCell>
        <mxCell id="A9qcc2CKMqSuFty0r8bE-147" value="Status" style="rounded=0;whiteSpace=wrap;html=1;fontSize=16;" vertex="1" parent="1">
          <mxGeometry x="3595" y="780" width="80" height="40" as="geometry" />
        </mxCell>
        <mxCell id="A9qcc2CKMqSuFty0r8bE-148" value="Status" style="rounded=0;whiteSpace=wrap;html=1;fontSize=16;" vertex="1" parent="1">
          <mxGeometry x="3595" y="842.5" width="80" height="40" as="geometry" />
        </mxCell>
        <mxCell id="A9qcc2CKMqSuFty0r8bE-149" value="Status" style="rounded=0;whiteSpace=wrap;html=1;fontSize=16;" vertex="1" parent="1">
          <mxGeometry x="3595" y="905" width="80" height="35" as="geometry" />
        </mxCell>
        <mxCell id="A9qcc2CKMqSuFty0r8bE-150" value="Staff member" style="text;html=1;strokeColor=none;fillColor=none;align=center;verticalAlign=middle;whiteSpace=wrap;rounded=0;fontSize=16;" vertex="1" parent="1">
          <mxGeometry x="3675" y="725" width="145" height="30" as="geometry" />
        </mxCell>
        <mxCell id="A9qcc2CKMqSuFty0r8bE-151" value="Staff member" style="text;html=1;strokeColor=none;fillColor=none;align=center;verticalAlign=middle;whiteSpace=wrap;rounded=0;fontSize=16;" vertex="1" parent="1">
          <mxGeometry x="3675" y="785" width="145" height="30" as="geometry" />
        </mxCell>
        <mxCell id="A9qcc2CKMqSuFty0r8bE-152" value="Staff member" style="text;html=1;strokeColor=none;fillColor=none;align=center;verticalAlign=middle;whiteSpace=wrap;rounded=0;fontSize=16;" vertex="1" parent="1">
          <mxGeometry x="3675" y="847.5" width="145" height="30" as="geometry" />
        </mxCell>
        <mxCell id="A9qcc2CKMqSuFty0r8bE-153" value="Staff member" style="text;html=1;strokeColor=none;fillColor=none;align=center;verticalAlign=middle;whiteSpace=wrap;rounded=0;fontSize=16;" vertex="1" parent="1">
          <mxGeometry x="3675" y="907.5" width="145" height="30" as="geometry" />
        </mxCell>
        <mxCell id="A9qcc2CKMqSuFty0r8bE-154" value="" style="rounded=0;whiteSpace=wrap;html=1;fontSize=16;" vertex="1" parent="1">
          <mxGeometry x="3895" y="720" width="120" height="40" as="geometry" />
        </mxCell>
        <mxCell id="A9qcc2CKMqSuFty0r8bE-155" value="" style="rounded=0;whiteSpace=wrap;html=1;fontSize=16;" vertex="1" parent="1">
          <mxGeometry x="3895" y="780" width="120" height="40" as="geometry" />
        </mxCell>
        <mxCell id="A9qcc2CKMqSuFty0r8bE-156" value="" style="rounded=0;whiteSpace=wrap;html=1;fontSize=16;" vertex="1" parent="1">
          <mxGeometry x="3895" y="840" width="120" height="42.5" as="geometry" />
        </mxCell>
        <mxCell id="A9qcc2CKMqSuFty0r8bE-157" value="" style="rounded=0;whiteSpace=wrap;html=1;fontSize=16;" vertex="1" parent="1">
          <mxGeometry x="3895" y="905" width="120" height="35" as="geometry" />
        </mxCell>
        <mxCell id="A9qcc2CKMqSuFty0r8bE-158" value="Back" style="rounded=1;whiteSpace=wrap;html=1;" vertex="1" parent="1">
          <mxGeometry x="3445" y="960" width="90" height="30" as="geometry" />
        </mxCell>
        <mxCell id="A9qcc2CKMqSuFty0r8bE-159" value="Shows who has access and who doesn’t&amp;nbsp;" style="text;html=1;strokeColor=none;fillColor=none;align=center;verticalAlign=middle;whiteSpace=wrap;rounded=0;fontSize=16;" vertex="1" parent="1">
          <mxGeometry x="3583.75" y="570" width="357.5" height="70" as="geometry" />
        </mxCell>
        <mxCell id="A9qcc2CKMqSuFty0r8bE-160" value="" style="rounded=0;whiteSpace=wrap;html=1;" vertex="1" parent="1">
          <mxGeometry x="1742.5" y="110" width="640" height="370" as="geometry" />
        </mxCell>
        <mxCell id="A9qcc2CKMqSuFty0r8bE-161" value="Username tab" style="text;html=1;strokeColor=none;fillColor=none;align=center;verticalAlign=middle;whiteSpace=wrap;rounded=0;fontSize=16;" vertex="1" parent="1">
          <mxGeometry x="1985" y="56.5" width="155" height="47.5" as="geometry" />
        </mxCell>
        <mxCell id="A9qcc2CKMqSuFty0r8bE-162" value="Back" style="rounded=1;whiteSpace=wrap;html=1;fontSize=16;" vertex="1" parent="1">
          <mxGeometry x="1752.5" y="125" width="85" height="35" as="geometry" />
        </mxCell>
        <mxCell id="A9qcc2CKMqSuFty0r8bE-163" value="Email" style="rounded=0;whiteSpace=wrap;html=1;fontSize=16;" vertex="1" parent="1">
          <mxGeometry x="1797.5" y="185" width="250" height="35" as="geometry" />
        </mxCell>
        <mxCell id="A9qcc2CKMqSuFty0r8bE-164" value="Name" style="rounded=0;whiteSpace=wrap;html=1;fontSize=16;" vertex="1" parent="1">
          <mxGeometry x="1797.5" y="230" width="250" height="40" as="geometry" />
        </mxCell>
        <mxCell id="A9qcc2CKMqSuFty0r8bE-165" value="Surname" style="rounded=0;whiteSpace=wrap;html=1;fontSize=16;" vertex="1" parent="1">
          <mxGeometry x="1797.5" y="287.5" width="250" height="42.5" as="geometry" />
        </mxCell>
        <mxCell id="A9qcc2CKMqSuFty0r8bE-166" value="Age" style="rounded=0;whiteSpace=wrap;html=1;fontSize=16;" vertex="1" parent="1">
          <mxGeometry x="1800" y="347.5" width="247.5" height="42.5" as="geometry" />
        </mxCell>
        <mxCell id="A9qcc2CKMqSuFty0r8bE-167" value="speciality" style="rounded=0;whiteSpace=wrap;html=1;fontSize=16;" vertex="1" parent="1">
          <mxGeometry x="1800" y="400" width="247.5" height="37.5" as="geometry" />
        </mxCell>
        <mxCell id="A9qcc2CKMqSuFty0r8bE-168" value="" style="rounded=0;whiteSpace=wrap;html=1;fontSize=16;" vertex="1" parent="1">
          <mxGeometry x="2107.5" y="187.5" width="210" height="252.5" as="geometry" />
        </mxCell>
        <mxCell id="A9qcc2CKMqSuFty0r8bE-169" value="&lt;h1&gt;Heading&lt;/h1&gt;&lt;p&gt;Lorem ipsum dolor sit amet, consectetur adipisicing elit, sed do eiusmod tempor incididunt ut labore et dolore magna aliqua.&lt;/p&gt;" style="text;html=1;strokeColor=none;fillColor=none;spacing=5;spacingTop=-20;whiteSpace=wrap;overflow=hidden;rounded=0;fontSize=16;" vertex="1" parent="1">
          <mxGeometry x="2127.5" y="180" width="190" height="250" as="geometry" />
        </mxCell>
        <mxCell id="A9qcc2CKMqSuFty0r8bE-170" value="…" style="rounded=0;whiteSpace=wrap;html=1;fontSize=16;" vertex="1" parent="1">
          <mxGeometry x="291" y="-732" width="224.5" height="20" as="geometry" />
        </mxCell>
        <mxCell id="A9qcc2CKMqSuFty0r8bE-171" value="" style="rounded=0;whiteSpace=wrap;html=1;fontSize=16;" vertex="1" parent="1">
          <mxGeometry x="290.5" y="763.75" width="229.5" height="22.5" as="geometry" />
        </mxCell>
        <mxCell id="A9qcc2CKMqSuFty0r8bE-172" value="Email" style="text;html=1;strokeColor=none;fillColor=none;align=center;verticalAlign=middle;whiteSpace=wrap;rounded=0;fontSize=11;" vertex="1" parent="1">
          <mxGeometry x="215" y="760" width="60" height="30" as="geometry" />
        </mxCell>
        <mxCell id="A9qcc2CKMqSuFty0r8bE-173" value="" style="rounded=0;whiteSpace=wrap;html=1;fontSize=16;" vertex="1" parent="1">
          <mxGeometry x="285" y="1260" width="230" height="30" as="geometry" />
        </mxCell>
        <mxCell id="A9qcc2CKMqSuFty0r8bE-174" value="Email" style="text;html=1;strokeColor=none;fillColor=none;align=center;verticalAlign=middle;whiteSpace=wrap;rounded=0;fontSize=12;" vertex="1" parent="1">
          <mxGeometry x="205" y="1260" width="60" height="30" as="geometry" />
        </mxCell>
        <mxCell id="A9qcc2CKMqSuFty0r8bE-175" value="Log out" style="rounded=1;whiteSpace=wrap;html=1;fontSize=16;" vertex="1" parent="1">
          <mxGeometry x="2287.5" y="120" width="82.5" height="40" as="geometry" />
        </mxCell>
        <mxCell id="A9qcc2CKMqSuFty0r8bE-176" value="Terms of use&amp;nbsp; Pivacy policy" style="rounded=0;whiteSpace=wrap;html=1;fontSize=16;" vertex="1" parent="1">
          <mxGeometry x="2568" y="950" width="639" height="30" as="geometry" />
        </mxCell>
        <mxCell id="A9qcc2CKMqSuFty0r8bE-177" value="Terms of use&amp;nbsp; Pivacy policy" style="rounded=0;whiteSpace=wrap;html=1;fontSize=16;" vertex="1" parent="1">
          <mxGeometry x="2560" y="440" width="640" height="40" as="geometry" />
        </mxCell>
        <mxCell id="A9qcc2CKMqSuFty0r8bE-178" value="&lt;h1&gt;Heading&lt;/h1&gt;&lt;p&gt;Lorem ipsum dolor sit amet, consectetur adipisicing elit, sed do eiusmod tempor incididunt ut labore et dolore magna aliqua.&lt;/p&gt;" style="text;html=1;strokeColor=none;fillColor=none;spacing=5;spacingTop=-20;whiteSpace=wrap;overflow=hidden;rounded=0;" vertex="1" parent="1">
          <mxGeometry x="2593" y="747.5" width="110" height="120" as="geometry" />
        </mxCell>
        <mxCell id="A9qcc2CKMqSuFty0r8bE-179" value="&lt;h1&gt;Heading&lt;/h1&gt;&lt;p&gt;Lorem ipsum dolor sit amet, consectetur adipisicing elit, sed do eiusmod tempor incididunt ut labore et dolore magna aliqua.&lt;/p&gt;" style="text;html=1;strokeColor=none;fillColor=none;spacing=5;spacingTop=-20;whiteSpace=wrap;overflow=hidden;rounded=0;" vertex="1" parent="1">
          <mxGeometry x="2753" y="750" width="110" height="120" as="geometry" />
        </mxCell>
        <mxCell id="A9qcc2CKMqSuFty0r8bE-180" value="&lt;h1&gt;Heading&lt;/h1&gt;&lt;p&gt;Lorem ipsum dolor sit amet, consectetur adipisicing elit, sed do eiusmod tempor incididunt ut labore et dolore magna aliqua.&lt;/p&gt;" style="text;html=1;strokeColor=none;fillColor=none;spacing=5;spacingTop=-20;whiteSpace=wrap;overflow=hidden;rounded=0;" vertex="1" parent="1">
          <mxGeometry x="2913" y="750" width="110" height="120" as="geometry" />
        </mxCell>
        <mxCell id="A9qcc2CKMqSuFty0r8bE-181" value="&lt;h1&gt;Heading&lt;/h1&gt;&lt;p&gt;Lorem ipsum dolor sit amet, consectetur adipisicing elit, sed do eiusmod tempor incididunt ut labore et dolore magna aliqua.&lt;/p&gt;" style="text;html=1;strokeColor=none;fillColor=none;spacing=5;spacingTop=-20;whiteSpace=wrap;overflow=hidden;rounded=0;" vertex="1" parent="1">
          <mxGeometry x="3073" y="750" width="110" height="120" as="geometry" />
        </mxCell>
        <mxCell id="A9qcc2CKMqSuFty0r8bE-182" value="" style="rounded=0;whiteSpace=wrap;html=1;" vertex="1" parent="1">
          <mxGeometry x="3442.5" y="1110" width="640" height="370" as="geometry" />
        </mxCell>
        <mxCell id="A9qcc2CKMqSuFty0r8bE-183" value="username" style="rounded=1;whiteSpace=wrap;html=1;" vertex="1" parent="1">
          <mxGeometry x="3462.5" y="1120" width="90" height="30" as="geometry" />
        </mxCell>
        <mxCell id="A9qcc2CKMqSuFty0r8bE-184" value="" style="rounded=0;whiteSpace=wrap;html=1;fontSize=16;" vertex="1" parent="1">
          <mxGeometry x="3502.5" y="1200" width="520" height="40" as="geometry" />
        </mxCell>
        <mxCell id="A9qcc2CKMqSuFty0r8bE-185" value="" style="rounded=0;whiteSpace=wrap;html=1;fontSize=16;" vertex="1" parent="1">
          <mxGeometry x="3502.5" y="1260" width="520" height="40" as="geometry" />
        </mxCell>
        <mxCell id="A9qcc2CKMqSuFty0r8bE-186" value="" style="rounded=0;whiteSpace=wrap;html=1;fontSize=16;" vertex="1" parent="1">
          <mxGeometry x="3502.5" y="1322.5" width="520" height="40" as="geometry" />
        </mxCell>
        <mxCell id="A9qcc2CKMqSuFty0r8bE-187" value="" style="rounded=0;whiteSpace=wrap;html=1;fontSize=16;" vertex="1" parent="1">
          <mxGeometry x="3502.5" y="1385" width="520" height="35" as="geometry" />
        </mxCell>
        <mxCell id="A9qcc2CKMqSuFty0r8bE-188" value="" style="rounded=0;whiteSpace=wrap;html=1;fontSize=16;" vertex="1" parent="1">
          <mxGeometry x="3502.5" y="1200" width="100" height="40" as="geometry" />
        </mxCell>
        <mxCell id="A9qcc2CKMqSuFty0r8bE-189" value="" style="rounded=0;whiteSpace=wrap;html=1;fontSize=16;" vertex="1" parent="1">
          <mxGeometry x="3502.5" y="1260" width="100" height="40" as="geometry" />
        </mxCell>
        <mxCell id="A9qcc2CKMqSuFty0r8bE-190" value="" style="rounded=0;whiteSpace=wrap;html=1;fontSize=16;" vertex="1" parent="1">
          <mxGeometry x="3502.5" y="1322.5" width="100" height="40" as="geometry" />
        </mxCell>
        <mxCell id="A9qcc2CKMqSuFty0r8bE-191" value="" style="rounded=0;whiteSpace=wrap;html=1;fontSize=16;" vertex="1" parent="1">
          <mxGeometry x="3502.5" y="1385" width="100" height="35" as="geometry" />
        </mxCell>
        <mxCell id="A9qcc2CKMqSuFty0r8bE-192" value="####" style="text;html=1;strokeColor=none;fillColor=none;align=center;verticalAlign=middle;whiteSpace=wrap;rounded=0;fontSize=16;" vertex="1" parent="1">
          <mxGeometry x="3522.5" y="1125" width="60" height="190" as="geometry" />
        </mxCell>
        <mxCell id="A9qcc2CKMqSuFty0r8bE-193" value="####" style="text;html=1;strokeColor=none;fillColor=none;align=center;verticalAlign=middle;whiteSpace=wrap;rounded=0;fontSize=16;" vertex="1" parent="1">
          <mxGeometry x="3522.5" y="1185" width="60" height="190" as="geometry" />
        </mxCell>
        <mxCell id="A9qcc2CKMqSuFty0r8bE-194" value="####" style="text;html=1;strokeColor=none;fillColor=none;align=center;verticalAlign=middle;whiteSpace=wrap;rounded=0;fontSize=16;" vertex="1" parent="1">
          <mxGeometry x="3522.5" y="1250" width="60" height="190" as="geometry" />
        </mxCell>
        <mxCell id="A9qcc2CKMqSuFty0r8bE-195" value="####" style="text;html=1;strokeColor=none;fillColor=none;align=center;verticalAlign=middle;whiteSpace=wrap;rounded=0;fontSize=16;" vertex="1" parent="1">
          <mxGeometry x="3522.5" y="1310" width="60" height="190" as="geometry" />
        </mxCell>
        <mxCell id="A9qcc2CKMqSuFty0r8bE-196" value="Status" style="rounded=0;whiteSpace=wrap;html=1;fontSize=16;" vertex="1" parent="1">
          <mxGeometry x="3602.5" y="1200" width="80" height="40" as="geometry" />
        </mxCell>
        <mxCell id="A9qcc2CKMqSuFty0r8bE-197" value="Status" style="rounded=0;whiteSpace=wrap;html=1;fontSize=16;" vertex="1" parent="1">
          <mxGeometry x="3602.5" y="1260" width="80" height="40" as="geometry" />
        </mxCell>
        <mxCell id="A9qcc2CKMqSuFty0r8bE-198" value="Status" style="rounded=0;whiteSpace=wrap;html=1;fontSize=16;" vertex="1" parent="1">
          <mxGeometry x="3602.5" y="1322.5" width="80" height="40" as="geometry" />
        </mxCell>
        <mxCell id="A9qcc2CKMqSuFty0r8bE-199" value="Status" style="rounded=0;whiteSpace=wrap;html=1;fontSize=16;" vertex="1" parent="1">
          <mxGeometry x="3602.5" y="1385" width="80" height="35" as="geometry" />
        </mxCell>
        <mxCell id="A9qcc2CKMqSuFty0r8bE-200" value="Staff member" style="text;html=1;strokeColor=none;fillColor=none;align=center;verticalAlign=middle;whiteSpace=wrap;rounded=0;fontSize=16;" vertex="1" parent="1">
          <mxGeometry x="3682.5" y="1205" width="145" height="30" as="geometry" />
        </mxCell>
        <mxCell id="A9qcc2CKMqSuFty0r8bE-201" value="Staff member" style="text;html=1;strokeColor=none;fillColor=none;align=center;verticalAlign=middle;whiteSpace=wrap;rounded=0;fontSize=16;" vertex="1" parent="1">
          <mxGeometry x="3682.5" y="1265" width="145" height="30" as="geometry" />
        </mxCell>
        <mxCell id="A9qcc2CKMqSuFty0r8bE-202" value="Staff member" style="text;html=1;strokeColor=none;fillColor=none;align=center;verticalAlign=middle;whiteSpace=wrap;rounded=0;fontSize=16;" vertex="1" parent="1">
          <mxGeometry x="3682.5" y="1327.5" width="145" height="30" as="geometry" />
        </mxCell>
        <mxCell id="A9qcc2CKMqSuFty0r8bE-203" value="Staff member" style="text;html=1;strokeColor=none;fillColor=none;align=center;verticalAlign=middle;whiteSpace=wrap;rounded=0;fontSize=16;" vertex="1" parent="1">
          <mxGeometry x="3682.5" y="1387.5" width="145" height="30" as="geometry" />
        </mxCell>
        <mxCell id="A9qcc2CKMqSuFty0r8bE-204" value="" style="rounded=0;whiteSpace=wrap;html=1;fontSize=16;" vertex="1" parent="1">
          <mxGeometry x="3902.5" y="1200" width="120" height="40" as="geometry" />
        </mxCell>
        <mxCell id="A9qcc2CKMqSuFty0r8bE-205" value="" style="rounded=0;whiteSpace=wrap;html=1;fontSize=16;" vertex="1" parent="1">
          <mxGeometry x="3902.5" y="1260" width="120" height="40" as="geometry" />
        </mxCell>
        <mxCell id="A9qcc2CKMqSuFty0r8bE-206" value="" style="rounded=0;whiteSpace=wrap;html=1;fontSize=16;" vertex="1" parent="1">
          <mxGeometry x="3902.5" y="1323.75" width="120" height="37.5" as="geometry" />
        </mxCell>
        <mxCell id="A9qcc2CKMqSuFty0r8bE-207" value="" style="rounded=0;whiteSpace=wrap;html=1;fontSize=16;" vertex="1" parent="1">
          <mxGeometry x="3902.5" y="1385" width="120" height="35" as="geometry" />
        </mxCell>
        <mxCell id="A9qcc2CKMqSuFty0r8bE-208" value="" style="rounded=0;whiteSpace=wrap;html=1;fontSize=16;" vertex="1" parent="1">
          <mxGeometry x="4042.5" y="1200" width="10" height="220" as="geometry" />
        </mxCell>
        <mxCell id="A9qcc2CKMqSuFty0r8bE-209" value="" style="rounded=0;whiteSpace=wrap;html=1;fontSize=16;" vertex="1" parent="1">
          <mxGeometry x="4042.5" y="1200" width="10" height="30" as="geometry" />
        </mxCell>
        <mxCell id="A9qcc2CKMqSuFty0r8bE-210" value="Back" style="rounded=1;whiteSpace=wrap;html=1;" vertex="1" parent="1">
          <mxGeometry x="3452.5" y="1440" width="90" height="30" as="geometry" />
        </mxCell>
        <mxCell id="A9qcc2CKMqSuFty0r8bE-211" value="Editing who has access and who doesn’t&amp;nbsp;" style="text;html=1;strokeColor=none;fillColor=none;align=center;verticalAlign=middle;whiteSpace=wrap;rounded=0;fontSize=16;" vertex="1" parent="1">
          <mxGeometry x="3586.25" y="1050" width="342.5" height="70" as="geometry" />
        </mxCell>
        <mxCell id="A9qcc2CKMqSuFty0r8bE-212" value="Edit" style="rounded=1;whiteSpace=wrap;html=1;" vertex="1" parent="1">
          <mxGeometry x="3910" y="675" width="90" height="30" as="geometry" />
        </mxCell>
        <mxCell id="A9qcc2CKMqSuFty0r8bE-213" value="Complete editing" style="rounded=1;whiteSpace=wrap;html=1;" vertex="1" parent="1">
          <mxGeometry x="3912.5" y="1155" width="100" height="30" as="geometry" />
        </mxCell>
        <mxCell id="A9qcc2CKMqSuFty0r8bE-214" value="Back" style="rounded=1;whiteSpace=wrap;html=1;fontSize=16;" vertex="1" parent="1">
          <mxGeometry x="105" y="-100" width="66" height="35" as="geometry" />
        </mxCell>
        <mxCell id="A9qcc2CKMqSuFty0r8bE-215" value="Back" style="rounded=1;whiteSpace=wrap;html=1;fontSize=16;" vertex="1" parent="1">
          <mxGeometry x="105.5" y="-582" width="66" height="35" as="geometry" />
        </mxCell>
        <mxCell id="A9qcc2CKMqSuFty0r8bE-216" value="View Access" style="rounded=1;whiteSpace=wrap;html=1;" vertex="1" parent="1">
          <mxGeometry x="3710" y="270" width="100" height="35" as="geometry" />
        </mxCell>
        <mxCell id="A9qcc2CKMqSuFty0r8bE-217" value="Search" style="rounded=1;whiteSpace=wrap;html=1;" vertex="1" parent="1">
          <mxGeometry x="3912.5" y="270" width="100" height="35" as="geometry" />
        </mxCell>
        <mxCell id="A9qcc2CKMqSuFty0r8bE-218" value="User&#39;s interface" style="text;html=1;align=center;verticalAlign=middle;resizable=0;points=[];autosize=1;strokeColor=none;fillColor=none;fontStyle=1" vertex="1" parent="1">
          <mxGeometry x="3907.5" y="222.5" width="110" height="30" as="geometry" />
        </mxCell>
        <mxCell id="A9qcc2CKMqSuFty0r8bE-219" value="Back" style="rounded=1;whiteSpace=wrap;html=1;" vertex="1" parent="1">
          <mxGeometry x="3473.5" y="432.5" width="90" height="30" as="geometry" />
        </mxCell>
        <mxCell id="A9qcc2CKMqSuFty0r8bE-220" value="Back" style="rounded=1;whiteSpace=wrap;html=1;fontSize=16;" vertex="1" parent="1">
          <mxGeometry x="105" y="907.5" width="66" height="35" as="geometry" />
        </mxCell>
        <mxCell id="A9qcc2CKMqSuFty0r8bE-221" value="Back" style="rounded=1;whiteSpace=wrap;html=1;fontSize=16;" vertex="1" parent="1">
          <mxGeometry x="105" y="1420" width="66" height="35" as="geometry" />
        </mxCell>
        <mxCell id="A9qcc2CKMqSuFty0r8bE-222" value="" style="rounded=0;whiteSpace=wrap;html=1;" vertex="1" parent="1">
          <mxGeometry x="3435" y="-457" width="640" height="370" as="geometry" />
        </mxCell>
        <mxCell id="A9qcc2CKMqSuFty0r8bE-223" value="username" style="rounded=1;whiteSpace=wrap;html=1;" vertex="1" parent="1">
          <mxGeometry x="3455" y="-447" width="90" height="30" as="geometry" />
        </mxCell>
        <mxCell id="A9qcc2CKMqSuFty0r8bE-224" value="Back" style="rounded=1;whiteSpace=wrap;html=1;" vertex="1" parent="1">
          <mxGeometry x="3445" y="-127" width="90" height="30" as="geometry" />
        </mxCell>
        <mxCell id="A9qcc2CKMqSuFty0r8bE-225" value="Shows the records" style="text;html=1;strokeColor=none;fillColor=none;align=center;verticalAlign=middle;whiteSpace=wrap;rounded=0;fontSize=16;" vertex="1" parent="1">
          <mxGeometry x="3615" y="-517" width="290" height="70" as="geometry" />
        </mxCell>
        <mxCell id="A9qcc2CKMqSuFty0r8bE-226" value="Edit" style="rounded=1;whiteSpace=wrap;html=1;" vertex="1" parent="1">
          <mxGeometry x="3910" y="-412" width="90" height="30" as="geometry" />
        </mxCell>
        <mxCell id="A9qcc2CKMqSuFty0r8bE-227" value="" style="rounded=0;whiteSpace=wrap;html=1;" vertex="1" parent="1">
          <mxGeometry x="3532.5" y="-352" width="120" height="202" as="geometry" />
        </mxCell>
        <mxCell id="A9qcc2CKMqSuFty0r8bE-228" value="" style="rounded=0;whiteSpace=wrap;html=1;" vertex="1" parent="1">
          <mxGeometry x="3652.5" y="-352" width="120" height="202" as="geometry" />
        </mxCell>
        <mxCell id="A9qcc2CKMqSuFty0r8bE-229" value="" style="rounded=0;whiteSpace=wrap;html=1;" vertex="1" parent="1">
          <mxGeometry x="3772.5" y="-352" width="120" height="202" as="geometry" />
        </mxCell>
        <mxCell id="A9qcc2CKMqSuFty0r8bE-230" value="" style="rounded=0;whiteSpace=wrap;html=1;" vertex="1" parent="1">
          <mxGeometry x="3892.5" y="-352" width="120" height="202" as="geometry" />
        </mxCell>
        <mxCell id="A9qcc2CKMqSuFty0r8bE-231" value="" style="rounded=0;whiteSpace=wrap;html=1;" vertex="1" parent="1">
          <mxGeometry x="3482.5" y="-352" width="50" height="202" as="geometry" />
        </mxCell>
        <mxCell id="A9qcc2CKMqSuFty0r8bE-232" value="#####" style="rounded=0;whiteSpace=wrap;html=1;" vertex="1" parent="1">
          <mxGeometry x="3482.5" y="-324" width="50" height="32" as="geometry" />
        </mxCell>
        <mxCell id="A9qcc2CKMqSuFty0r8bE-233" value="#####" style="rounded=0;whiteSpace=wrap;html=1;" vertex="1" parent="1">
          <mxGeometry x="3482.5" y="-292" width="50" height="32" as="geometry" />
        </mxCell>
        <mxCell id="A9qcc2CKMqSuFty0r8bE-234" value="#####" style="rounded=0;whiteSpace=wrap;html=1;" vertex="1" parent="1">
          <mxGeometry x="3482.5" y="-260" width="50" height="32" as="geometry" />
        </mxCell>
        <mxCell id="A9qcc2CKMqSuFty0r8bE-235" value="#####" style="rounded=0;whiteSpace=wrap;html=1;" vertex="1" parent="1">
          <mxGeometry x="3482.5" y="-228" width="50" height="32" as="geometry" />
        </mxCell>
        <mxCell id="A9qcc2CKMqSuFty0r8bE-236" value="#####" style="rounded=0;whiteSpace=wrap;html=1;" vertex="1" parent="1">
          <mxGeometry x="3482.5" y="-196" width="50" height="32" as="geometry" />
        </mxCell>
        <mxCell id="A9qcc2CKMqSuFty0r8bE-237" value="" style="rounded=0;whiteSpace=wrap;html=1;" vertex="1" parent="1">
          <mxGeometry x="3532.5" y="-324" width="120" height="32" as="geometry" />
        </mxCell>
        <mxCell id="A9qcc2CKMqSuFty0r8bE-238" value="" style="rounded=0;whiteSpace=wrap;html=1;" vertex="1" parent="1">
          <mxGeometry x="3532.5" y="-292" width="120" height="32" as="geometry" />
        </mxCell>
        <mxCell id="A9qcc2CKMqSuFty0r8bE-239" value="" style="rounded=0;whiteSpace=wrap;html=1;" vertex="1" parent="1">
          <mxGeometry x="3532.5" y="-260" width="120" height="32" as="geometry" />
        </mxCell>
        <mxCell id="A9qcc2CKMqSuFty0r8bE-240" value="" style="rounded=0;whiteSpace=wrap;html=1;" vertex="1" parent="1">
          <mxGeometry x="3532.5" y="-228" width="120" height="32" as="geometry" />
        </mxCell>
        <mxCell id="A9qcc2CKMqSuFty0r8bE-241" value="" style="rounded=0;whiteSpace=wrap;html=1;" vertex="1" parent="1">
          <mxGeometry x="3532.5" y="-196" width="120" height="32" as="geometry" />
        </mxCell>
        <mxCell id="A9qcc2CKMqSuFty0r8bE-242" value="" style="rounded=0;whiteSpace=wrap;html=1;" vertex="1" parent="1">
          <mxGeometry x="3652.5" y="-292" width="120" height="32" as="geometry" />
        </mxCell>
        <mxCell id="A9qcc2CKMqSuFty0r8bE-243" value="" style="rounded=0;whiteSpace=wrap;html=1;" vertex="1" parent="1">
          <mxGeometry x="3652.5" y="-324" width="120" height="32" as="geometry" />
        </mxCell>
        <mxCell id="A9qcc2CKMqSuFty0r8bE-244" value="" style="rounded=0;whiteSpace=wrap;html=1;" vertex="1" parent="1">
          <mxGeometry x="3652.5" y="-196" width="120" height="32" as="geometry" />
        </mxCell>
        <mxCell id="A9qcc2CKMqSuFty0r8bE-245" value="" style="rounded=0;whiteSpace=wrap;html=1;" vertex="1" parent="1">
          <mxGeometry x="3772.5" y="-324" width="120" height="32" as="geometry" />
        </mxCell>
        <mxCell id="A9qcc2CKMqSuFty0r8bE-246" value="" style="rounded=0;whiteSpace=wrap;html=1;" vertex="1" parent="1">
          <mxGeometry x="3652.5" y="-260" width="120" height="32" as="geometry" />
        </mxCell>
        <mxCell id="A9qcc2CKMqSuFty0r8bE-247" value="" style="rounded=0;whiteSpace=wrap;html=1;" vertex="1" parent="1">
          <mxGeometry x="3652.5" y="-228" width="120" height="32" as="geometry" />
        </mxCell>
        <mxCell id="A9qcc2CKMqSuFty0r8bE-248" value="" style="rounded=0;whiteSpace=wrap;html=1;" vertex="1" parent="1">
          <mxGeometry x="3772.5" y="-260" width="120" height="32" as="geometry" />
        </mxCell>
        <mxCell id="A9qcc2CKMqSuFty0r8bE-249" value="" style="rounded=0;whiteSpace=wrap;html=1;" vertex="1" parent="1">
          <mxGeometry x="3772.5" y="-292" width="120" height="32" as="geometry" />
        </mxCell>
        <mxCell id="A9qcc2CKMqSuFty0r8bE-250" value="" style="rounded=0;whiteSpace=wrap;html=1;" vertex="1" parent="1">
          <mxGeometry x="3772.5" y="-196" width="120" height="32" as="geometry" />
        </mxCell>
        <mxCell id="A9qcc2CKMqSuFty0r8bE-251" value="" style="rounded=0;whiteSpace=wrap;html=1;" vertex="1" parent="1">
          <mxGeometry x="3772.5" y="-228" width="120" height="32" as="geometry" />
        </mxCell>
        <mxCell id="A9qcc2CKMqSuFty0r8bE-252" value="" style="rounded=0;whiteSpace=wrap;html=1;" vertex="1" parent="1">
          <mxGeometry x="3892.5" y="-228" width="120" height="32" as="geometry" />
        </mxCell>
        <mxCell id="A9qcc2CKMqSuFty0r8bE-253" value="" style="rounded=0;whiteSpace=wrap;html=1;" vertex="1" parent="1">
          <mxGeometry x="3892.5" y="-260" width="120" height="32" as="geometry" />
        </mxCell>
        <mxCell id="A9qcc2CKMqSuFty0r8bE-254" value="" style="rounded=0;whiteSpace=wrap;html=1;" vertex="1" parent="1">
          <mxGeometry x="3892.5" y="-292" width="120" height="32" as="geometry" />
        </mxCell>
        <mxCell id="A9qcc2CKMqSuFty0r8bE-255" value="" style="rounded=0;whiteSpace=wrap;html=1;" vertex="1" parent="1">
          <mxGeometry x="3892.5" y="-324" width="120" height="32" as="geometry" />
        </mxCell>
        <mxCell id="A9qcc2CKMqSuFty0r8bE-256" value="" style="rounded=0;whiteSpace=wrap;html=1;" vertex="1" parent="1">
          <mxGeometry x="3892.5" y="-196" width="120" height="32" as="geometry" />
        </mxCell>
        <mxCell id="A9qcc2CKMqSuFty0r8bE-257" value="index" style="text;html=1;strokeColor=none;fillColor=none;align=center;verticalAlign=middle;whiteSpace=wrap;rounded=0;" vertex="1" parent="1">
          <mxGeometry x="3477.5" y="-354" width="60" height="30" as="geometry" />
        </mxCell>
        <mxCell id="A9qcc2CKMqSuFty0r8bE-258" value="..." style="text;html=1;align=center;verticalAlign=middle;resizable=0;points=[];autosize=1;strokeColor=none;fillColor=none;fontSize=24;" vertex="1" parent="1">
          <mxGeometry x="3932.5" y="-364" width="40" height="40" as="geometry" />
        </mxCell>
        <mxCell id="A9qcc2CKMqSuFty0r8bE-259" value="..." style="text;html=1;align=center;verticalAlign=middle;resizable=0;points=[];autosize=1;strokeColor=none;fillColor=none;fontSize=24;" vertex="1" parent="1">
          <mxGeometry x="3811.5" y="-364" width="40" height="40" as="geometry" />
        </mxCell>
        <mxCell id="A9qcc2CKMqSuFty0r8bE-260" value="..." style="text;html=1;align=center;verticalAlign=middle;resizable=0;points=[];autosize=1;strokeColor=none;fillColor=none;fontSize=24;" vertex="1" parent="1">
          <mxGeometry x="3692.5" y="-364" width="40" height="40" as="geometry" />
        </mxCell>
        <mxCell id="A9qcc2CKMqSuFty0r8bE-261" value="..." style="text;html=1;align=center;verticalAlign=middle;resizable=0;points=[];autosize=1;strokeColor=none;fillColor=none;fontSize=24;" vertex="1" parent="1">
          <mxGeometry x="3572.5" y="-364" width="40" height="40" as="geometry" />
        </mxCell>
        <mxCell id="A9qcc2CKMqSuFty0r8bE-262" value="" style="rounded=0;whiteSpace=wrap;html=1;" vertex="1" parent="1">
          <mxGeometry x="3442.5" y="-922" width="640" height="370" as="geometry" />
        </mxCell>
        <mxCell id="A9qcc2CKMqSuFty0r8bE-263" value="username" style="rounded=1;whiteSpace=wrap;html=1;" vertex="1" parent="1">
          <mxGeometry x="3462.5" y="-912" width="90" height="30" as="geometry" />
        </mxCell>
        <mxCell id="A9qcc2CKMqSuFty0r8bE-264" value="Back" style="rounded=1;whiteSpace=wrap;html=1;" vertex="1" parent="1">
          <mxGeometry x="3452.5" y="-592" width="90" height="30" as="geometry" />
        </mxCell>
        <mxCell id="A9qcc2CKMqSuFty0r8bE-265" value="Editing the records" style="text;html=1;strokeColor=none;fillColor=none;align=center;verticalAlign=middle;whiteSpace=wrap;rounded=0;fontSize=16;" vertex="1" parent="1">
          <mxGeometry x="3622.5" y="-982" width="290" height="70" as="geometry" />
        </mxCell>
        <mxCell id="A9qcc2CKMqSuFty0r8bE-266" value="" style="rounded=0;whiteSpace=wrap;html=1;" vertex="1" parent="1">
          <mxGeometry x="3540" y="-817" width="120" height="202" as="geometry" />
        </mxCell>
        <mxCell id="A9qcc2CKMqSuFty0r8bE-267" value="" style="rounded=0;whiteSpace=wrap;html=1;" vertex="1" parent="1">
          <mxGeometry x="3660" y="-817" width="120" height="202" as="geometry" />
        </mxCell>
        <mxCell id="A9qcc2CKMqSuFty0r8bE-268" value="" style="rounded=0;whiteSpace=wrap;html=1;" vertex="1" parent="1">
          <mxGeometry x="3780" y="-817" width="120" height="202" as="geometry" />
        </mxCell>
        <mxCell id="A9qcc2CKMqSuFty0r8bE-269" value="" style="rounded=0;whiteSpace=wrap;html=1;" vertex="1" parent="1">
          <mxGeometry x="3900" y="-817" width="120" height="202" as="geometry" />
        </mxCell>
        <mxCell id="A9qcc2CKMqSuFty0r8bE-270" value="" style="rounded=0;whiteSpace=wrap;html=1;" vertex="1" parent="1">
          <mxGeometry x="3490" y="-817" width="50" height="202" as="geometry" />
        </mxCell>
        <mxCell id="A9qcc2CKMqSuFty0r8bE-271" value="#####" style="rounded=0;whiteSpace=wrap;html=1;" vertex="1" parent="1">
          <mxGeometry x="3490" y="-789" width="50" height="32" as="geometry" />
        </mxCell>
        <mxCell id="A9qcc2CKMqSuFty0r8bE-272" value="#####" style="rounded=0;whiteSpace=wrap;html=1;" vertex="1" parent="1">
          <mxGeometry x="3490" y="-757" width="50" height="32" as="geometry" />
        </mxCell>
        <mxCell id="A9qcc2CKMqSuFty0r8bE-273" value="#####" style="rounded=0;whiteSpace=wrap;html=1;" vertex="1" parent="1">
          <mxGeometry x="3490" y="-725" width="50" height="32" as="geometry" />
        </mxCell>
        <mxCell id="A9qcc2CKMqSuFty0r8bE-274" value="#####" style="rounded=0;whiteSpace=wrap;html=1;" vertex="1" parent="1">
          <mxGeometry x="3490" y="-693" width="50" height="32" as="geometry" />
        </mxCell>
        <mxCell id="A9qcc2CKMqSuFty0r8bE-275" value="#####" style="rounded=0;whiteSpace=wrap;html=1;" vertex="1" parent="1">
          <mxGeometry x="3490" y="-661" width="50" height="32" as="geometry" />
        </mxCell>
        <mxCell id="A9qcc2CKMqSuFty0r8bE-276" value="" style="rounded=0;whiteSpace=wrap;html=1;" vertex="1" parent="1">
          <mxGeometry x="3540" y="-789" width="120" height="32" as="geometry" />
        </mxCell>
        <mxCell id="A9qcc2CKMqSuFty0r8bE-277" value="" style="rounded=0;whiteSpace=wrap;html=1;" vertex="1" parent="1">
          <mxGeometry x="3540" y="-757" width="120" height="32" as="geometry" />
        </mxCell>
        <mxCell id="A9qcc2CKMqSuFty0r8bE-278" value="" style="rounded=0;whiteSpace=wrap;html=1;" vertex="1" parent="1">
          <mxGeometry x="3540" y="-725" width="120" height="32" as="geometry" />
        </mxCell>
        <mxCell id="A9qcc2CKMqSuFty0r8bE-279" value="" style="rounded=0;whiteSpace=wrap;html=1;" vertex="1" parent="1">
          <mxGeometry x="3540" y="-693" width="120" height="32" as="geometry" />
        </mxCell>
        <mxCell id="A9qcc2CKMqSuFty0r8bE-280" value="" style="rounded=0;whiteSpace=wrap;html=1;" vertex="1" parent="1">
          <mxGeometry x="3540" y="-661" width="120" height="32" as="geometry" />
        </mxCell>
        <mxCell id="A9qcc2CKMqSuFty0r8bE-281" value="" style="rounded=0;whiteSpace=wrap;html=1;" vertex="1" parent="1">
          <mxGeometry x="3660" y="-757" width="120" height="32" as="geometry" />
        </mxCell>
        <mxCell id="A9qcc2CKMqSuFty0r8bE-282" value="" style="rounded=0;whiteSpace=wrap;html=1;" vertex="1" parent="1">
          <mxGeometry x="3660" y="-789" width="120" height="32" as="geometry" />
        </mxCell>
        <mxCell id="A9qcc2CKMqSuFty0r8bE-283" value="" style="rounded=0;whiteSpace=wrap;html=1;" vertex="1" parent="1">
          <mxGeometry x="3660" y="-661" width="120" height="32" as="geometry" />
        </mxCell>
        <mxCell id="A9qcc2CKMqSuFty0r8bE-284" value="" style="rounded=0;whiteSpace=wrap;html=1;" vertex="1" parent="1">
          <mxGeometry x="3780" y="-789" width="120" height="32" as="geometry" />
        </mxCell>
        <mxCell id="A9qcc2CKMqSuFty0r8bE-285" value="" style="rounded=0;whiteSpace=wrap;html=1;" vertex="1" parent="1">
          <mxGeometry x="3660" y="-725" width="120" height="32" as="geometry" />
        </mxCell>
        <mxCell id="A9qcc2CKMqSuFty0r8bE-286" value="" style="rounded=0;whiteSpace=wrap;html=1;" vertex="1" parent="1">
          <mxGeometry x="3660" y="-693" width="120" height="32" as="geometry" />
        </mxCell>
        <mxCell id="A9qcc2CKMqSuFty0r8bE-287" value="" style="rounded=0;whiteSpace=wrap;html=1;" vertex="1" parent="1">
          <mxGeometry x="3780" y="-725" width="120" height="32" as="geometry" />
        </mxCell>
        <mxCell id="A9qcc2CKMqSuFty0r8bE-288" value="" style="rounded=0;whiteSpace=wrap;html=1;" vertex="1" parent="1">
          <mxGeometry x="3780" y="-757" width="120" height="32" as="geometry" />
        </mxCell>
        <mxCell id="A9qcc2CKMqSuFty0r8bE-289" value="" style="rounded=0;whiteSpace=wrap;html=1;" vertex="1" parent="1">
          <mxGeometry x="3780" y="-661" width="120" height="32" as="geometry" />
        </mxCell>
        <mxCell id="A9qcc2CKMqSuFty0r8bE-290" value="" style="rounded=0;whiteSpace=wrap;html=1;" vertex="1" parent="1">
          <mxGeometry x="3780" y="-693" width="120" height="32" as="geometry" />
        </mxCell>
        <mxCell id="A9qcc2CKMqSuFty0r8bE-291" value="" style="rounded=0;whiteSpace=wrap;html=1;" vertex="1" parent="1">
          <mxGeometry x="3900" y="-693" width="120" height="32" as="geometry" />
        </mxCell>
        <mxCell id="A9qcc2CKMqSuFty0r8bE-292" value="" style="rounded=0;whiteSpace=wrap;html=1;" vertex="1" parent="1">
          <mxGeometry x="3900" y="-725" width="120" height="32" as="geometry" />
        </mxCell>
        <mxCell id="A9qcc2CKMqSuFty0r8bE-293" value="" style="rounded=0;whiteSpace=wrap;html=1;" vertex="1" parent="1">
          <mxGeometry x="3900" y="-757" width="120" height="32" as="geometry" />
        </mxCell>
        <mxCell id="A9qcc2CKMqSuFty0r8bE-294" value="" style="rounded=0;whiteSpace=wrap;html=1;" vertex="1" parent="1">
          <mxGeometry x="3900" y="-789" width="120" height="32" as="geometry" />
        </mxCell>
        <mxCell id="A9qcc2CKMqSuFty0r8bE-295" value="" style="rounded=0;whiteSpace=wrap;html=1;" vertex="1" parent="1">
          <mxGeometry x="3900" y="-661" width="120" height="32" as="geometry" />
        </mxCell>
        <mxCell id="A9qcc2CKMqSuFty0r8bE-296" value="index" style="text;html=1;strokeColor=none;fillColor=none;align=center;verticalAlign=middle;whiteSpace=wrap;rounded=0;" vertex="1" parent="1">
          <mxGeometry x="3485" y="-819" width="60" height="30" as="geometry" />
        </mxCell>
        <mxCell id="A9qcc2CKMqSuFty0r8bE-297" value="..." style="text;html=1;align=center;verticalAlign=middle;resizable=0;points=[];autosize=1;strokeColor=none;fillColor=none;fontSize=24;" vertex="1" parent="1">
          <mxGeometry x="3940" y="-829" width="40" height="40" as="geometry" />
        </mxCell>
        <mxCell id="A9qcc2CKMqSuFty0r8bE-298" value="..." style="text;html=1;align=center;verticalAlign=middle;resizable=0;points=[];autosize=1;strokeColor=none;fillColor=none;fontSize=24;" vertex="1" parent="1">
          <mxGeometry x="3819" y="-829" width="40" height="40" as="geometry" />
        </mxCell>
        <mxCell id="A9qcc2CKMqSuFty0r8bE-299" value="..." style="text;html=1;align=center;verticalAlign=middle;resizable=0;points=[];autosize=1;strokeColor=none;fillColor=none;fontSize=24;" vertex="1" parent="1">
          <mxGeometry x="3700" y="-829" width="40" height="40" as="geometry" />
        </mxCell>
        <mxCell id="A9qcc2CKMqSuFty0r8bE-300" value="..." style="text;html=1;align=center;verticalAlign=middle;resizable=0;points=[];autosize=1;strokeColor=none;fillColor=none;fontSize=24;" vertex="1" parent="1">
          <mxGeometry x="3580" y="-829" width="40" height="40" as="geometry" />
        </mxCell>
        <mxCell id="A9qcc2CKMqSuFty0r8bE-301" value="Complete editing" style="rounded=1;whiteSpace=wrap;html=1;" vertex="1" parent="1">
          <mxGeometry x="3915" y="-870" width="100" height="30" as="geometry" />
        </mxCell>
        <mxCell id="A9qcc2CKMqSuFty0r8bE-302" value="" style="rounded=0;whiteSpace=wrap;html=1;" vertex="1" parent="1">
          <mxGeometry x="2555" y="1102.5" width="640" height="370" as="geometry" />
        </mxCell>
        <mxCell id="A9qcc2CKMqSuFty0r8bE-303" value="help" style="rounded=1;whiteSpace=wrap;html=1;" vertex="1" parent="1">
          <mxGeometry x="3085" y="1122.5" width="90" height="30" as="geometry" />
        </mxCell>
        <mxCell id="A9qcc2CKMqSuFty0r8bE-304" value="name" style="text;html=1;strokeColor=none;fillColor=none;align=center;verticalAlign=middle;whiteSpace=wrap;rounded=0;" vertex="1" parent="1">
          <mxGeometry x="2845" y="1122.5" width="60" height="30" as="geometry" />
        </mxCell>
        <mxCell id="A9qcc2CKMqSuFty0r8bE-305" value="username" style="rounded=1;whiteSpace=wrap;html=1;" vertex="1" parent="1">
          <mxGeometry x="2575" y="1122.5" width="90" height="30" as="geometry" />
        </mxCell>
        <mxCell id="A9qcc2CKMqSuFty0r8bE-306" value="back" style="rounded=1;whiteSpace=wrap;html=1;" vertex="1" parent="1">
          <mxGeometry x="2575" y="1400" width="90" height="30" as="geometry" />
        </mxCell>
        <mxCell id="A9qcc2CKMqSuFty0r8bE-307" value="page for information about vendor" style="text;html=1;strokeColor=none;fillColor=none;align=center;verticalAlign=middle;whiteSpace=wrap;rounded=0;" vertex="1" parent="1">
          <mxGeometry x="2753.75" y="1060" width="202.5" height="30" as="geometry" />
        </mxCell>
        <mxCell id="A9qcc2CKMqSuFty0r8bE-308" value="Terms of use&amp;nbsp; Pivacy policy" style="rounded=0;whiteSpace=wrap;html=1;fontSize=16;" vertex="1" parent="1">
          <mxGeometry x="2555" y="1442.5" width="639" height="30" as="geometry" />
        </mxCell>
        <mxCell id="A9qcc2CKMqSuFty0r8bE-309" value="" style="rounded=0;whiteSpace=wrap;html=1;" vertex="1" parent="1">
          <mxGeometry x="2814.5" y="1190" width="360" height="187.5" as="geometry" />
        </mxCell>
        <mxCell id="A9qcc2CKMqSuFty0r8bE-310" value="&lt;h1&gt;Heading&lt;/h1&gt;&lt;p&gt;Lorem ipsum dolor sit amet, consectetur adipisicing elit, sed do eiusmod tempor incididunt ut labore et dolore magna aliqua.&lt;/p&gt;" style="text;html=1;strokeColor=none;fillColor=none;spacing=5;spacingTop=-20;whiteSpace=wrap;overflow=hidden;rounded=0;" vertex="1" parent="1">
          <mxGeometry x="2830" y="1207.5" width="337.5" height="155" as="geometry" />
        </mxCell>
        <mxCell id="A9qcc2CKMqSuFty0r8bE-311" value="Logo" style="rounded=0;whiteSpace=wrap;html=1;" vertex="1" parent="1">
          <mxGeometry x="2587.5" y="1187.5" width="210" height="45" as="geometry" />
        </mxCell>
        <mxCell id="A9qcc2CKMqSuFty0r8bE-312" value="" style="rounded=0;whiteSpace=wrap;html=1;" vertex="1" parent="1">
          <mxGeometry x="2587.5" y="1257.5" width="210" height="115" as="geometry" />
        </mxCell>
        <mxCell id="A9qcc2CKMqSuFty0r8bE-313" value="" style="endArrow=none;html=1;rounded=0;" edge="1" parent="1" target="A9qcc2CKMqSuFty0r8bE-312">
          <mxGeometry width="50" height="50" relative="1" as="geometry">
            <mxPoint x="2587.5" y="1372.5" as="sourcePoint" />
            <mxPoint x="2637.5" y="1322.5" as="targetPoint" />
          </mxGeometry>
        </mxCell>
        <mxCell id="A9qcc2CKMqSuFty0r8bE-314" value="" style="endArrow=none;html=1;rounded=0;entryX=0;entryY=1;entryDx=0;entryDy=0;exitX=1;exitY=0;exitDx=0;exitDy=0;" edge="1" parent="1" source="A9qcc2CKMqSuFty0r8bE-312" target="A9qcc2CKMqSuFty0r8bE-312">
          <mxGeometry width="50" height="50" relative="1" as="geometry">
            <mxPoint x="3007.5" y="1292.5" as="sourcePoint" />
            <mxPoint x="3057.5" y="1242.5" as="targetPoint" />
          </mxGeometry>
        </mxCell>
        <mxCell id="A9qcc2CKMqSuFty0r8bE-315" value="" style="endArrow=none;html=1;rounded=0;exitX=1;exitY=1;exitDx=0;exitDy=0;entryX=0;entryY=0;entryDx=0;entryDy=0;" edge="1" parent="1" source="A9qcc2CKMqSuFty0r8bE-312" target="A9qcc2CKMqSuFty0r8bE-312">
          <mxGeometry width="50" height="50" relative="1" as="geometry">
            <mxPoint x="3007.5" y="1292.5" as="sourcePoint" />
            <mxPoint x="3057.5" y="1242.5" as="targetPoint" />
          </mxGeometry>
        </mxCell>
        <mxCell id="A9qcc2CKMqSuFty0r8bE-316" value="" style="rounded=0;whiteSpace=wrap;html=1;" vertex="1" parent="1">
          <mxGeometry x="2810" y="-357" width="229" height="25" as="geometry" />
        </mxCell>
        <mxCell id="A9qcc2CKMqSuFty0r8bE-317" value="" style="rounded=0;whiteSpace=wrap;html=1;" vertex="1" parent="1">
          <mxGeometry x="2560" y="-457" width="640" height="370" as="geometry" />
        </mxCell>
        <mxCell id="A9qcc2CKMqSuFty0r8bE-318" value="back" style="rounded=1;whiteSpace=wrap;html=1;" vertex="1" parent="1">
          <mxGeometry x="2585" y="-132" width="90" height="30" as="geometry" />
        </mxCell>
        <mxCell id="A9qcc2CKMqSuFty0r8bE-319" value="name" style="text;html=1;strokeColor=none;fillColor=none;align=center;verticalAlign=middle;whiteSpace=wrap;rounded=0;" vertex="1" parent="1">
          <mxGeometry x="2850" y="-437" width="60" height="30" as="geometry" />
        </mxCell>
        <mxCell id="A9qcc2CKMqSuFty0r8bE-320" value="&lt;font style=&quot;font-size: 16px;&quot;&gt;terms of use and privacy&lt;/font&gt;" style="text;html=1;strokeColor=none;fillColor=none;align=center;verticalAlign=middle;whiteSpace=wrap;rounded=0;" vertex="1" parent="1">
          <mxGeometry x="2760" y="-497" width="229" height="30" as="geometry" />
        </mxCell>
        <mxCell id="A9qcc2CKMqSuFty0r8bE-321" value="&lt;font style=&quot;font-size: 15px;&quot;&gt;Terms of Use and Privacy Policy&lt;/font&gt;" style="text;html=1;strokeColor=none;fillColor=none;align=center;verticalAlign=middle;whiteSpace=wrap;rounded=0;" vertex="1" parent="1">
          <mxGeometry x="2711.5" y="-400" width="337" height="30" as="geometry" />
        </mxCell>
        <mxCell id="A9qcc2CKMqSuFty0r8bE-322" value="" style="rounded=0;whiteSpace=wrap;html=1;" vertex="1" parent="1">
          <mxGeometry x="2592.5" y="-354" width="553.5" height="189" as="geometry" />
        </mxCell>
        <mxCell id="A9qcc2CKMqSuFty0r8bE-323" value="&lt;h1&gt;&lt;span style=&quot;font-size: 12px; font-weight: normal;&quot;&gt;Lorem ipsum dolor sit amet, consectetur adipisicing elit, sed do eiusmod tempor incididunt ut labore et dolore magna aliqua.&lt;/span&gt;&lt;br&gt;&lt;/h1&gt;" style="text;html=1;strokeColor=none;fillColor=none;spacing=5;spacingTop=-20;whiteSpace=wrap;overflow=hidden;rounded=0;" vertex="1" parent="1">
          <mxGeometry x="2600.5" y="-327" width="522.5" height="120" as="geometry" />
        </mxCell>
        <mxCell id="A9qcc2CKMqSuFty0r8bE-324" value="" style="rounded=1;whiteSpace=wrap;html=1;" vertex="1" parent="1">
          <mxGeometry x="4037.5" y="725" width="10" height="210" as="geometry" />
        </mxCell>
        <mxCell id="A9qcc2CKMqSuFty0r8bE-325" value="" style="rounded=1;whiteSpace=wrap;html=1;arcSize=50;fillColor=#CCCCCC;" vertex="1" parent="1">
          <mxGeometry x="4037.5" y="725" width="10" height="15" as="geometry" />
        </mxCell>
        <mxCell id="A9qcc2CKMqSuFty0r8bE-326" value="" style="rounded=1;whiteSpace=wrap;html=1;" vertex="1" parent="1">
          <mxGeometry x="4040" y="-349" width="10" height="210" as="geometry" />
        </mxCell>
        <mxCell id="A9qcc2CKMqSuFty0r8bE-327" value="" style="rounded=1;whiteSpace=wrap;html=1;arcSize=50;fillColor=#CCCCCC;" vertex="1" parent="1">
          <mxGeometry x="4040" y="-349" width="10" height="15" as="geometry" />
        </mxCell>
        <mxCell id="A9qcc2CKMqSuFty0r8bE-328" value="" style="rounded=1;whiteSpace=wrap;html=1;" vertex="1" parent="1">
          <mxGeometry x="3167.5" y="-357" width="10" height="210" as="geometry" />
        </mxCell>
        <mxCell id="A9qcc2CKMqSuFty0r8bE-329" value="" style="rounded=1;whiteSpace=wrap;html=1;arcSize=50;fillColor=#CCCCCC;" vertex="1" parent="1">
          <mxGeometry x="3167.5" y="-357" width="10" height="15" as="geometry" />
        </mxCell>
        <mxCell id="A9qcc2CKMqSuFty0r8bE-330" value="" style="rounded=1;whiteSpace=wrap;html=1;" vertex="1" parent="1">
          <mxGeometry x="4042.5" y="-814.5" width="10" height="210" as="geometry" />
        </mxCell>
        <mxCell id="A9qcc2CKMqSuFty0r8bE-331" value="" style="rounded=1;whiteSpace=wrap;html=1;arcSize=50;fillColor=#CCCCCC;" vertex="1" parent="1">
          <mxGeometry x="4042.5" y="-814.5" width="10" height="15" as="geometry" />
        </mxCell>
        <mxCell id="A9qcc2CKMqSuFty0r8bE-332" value="" style="rounded=0;whiteSpace=wrap;html=1;" vertex="1" parent="1">
          <mxGeometry x="335" y="1750" width="229" height="25" as="geometry" />
        </mxCell>
        <mxCell id="A9qcc2CKMqSuFty0r8bE-333" value="" style="rounded=0;whiteSpace=wrap;html=1;" vertex="1" parent="1">
          <mxGeometry x="85" y="1650" width="640" height="370" as="geometry" />
        </mxCell>
        <mxCell id="A9qcc2CKMqSuFty0r8bE-334" value="back" style="rounded=1;whiteSpace=wrap;html=1;" vertex="1" parent="1">
          <mxGeometry x="110" y="1975" width="90" height="30" as="geometry" />
        </mxCell>
        <mxCell id="A9qcc2CKMqSuFty0r8bE-335" value="name" style="text;html=1;strokeColor=none;fillColor=none;align=center;verticalAlign=middle;whiteSpace=wrap;rounded=0;" vertex="1" parent="1">
          <mxGeometry x="375" y="1670" width="60" height="30" as="geometry" />
        </mxCell>
        <mxCell id="A9qcc2CKMqSuFty0r8bE-336" value="&lt;font style=&quot;font-size: 16px;&quot;&gt;Tutorial&lt;/font&gt;" style="text;html=1;strokeColor=none;fillColor=none;align=center;verticalAlign=middle;whiteSpace=wrap;rounded=0;" vertex="1" parent="1">
          <mxGeometry x="313.25" y="1610" width="160" height="30" as="geometry" />
        </mxCell>
        <mxCell id="A9qcc2CKMqSuFty0r8bE-337" value="&lt;span style=&quot;font-size: 15px;&quot;&gt;First time tutorial&lt;/span&gt;" style="text;html=1;strokeColor=none;fillColor=none;align=center;verticalAlign=middle;whiteSpace=wrap;rounded=0;" vertex="1" parent="1">
          <mxGeometry x="236.5" y="1718" width="337" height="30" as="geometry" />
        </mxCell>
        <mxCell id="A9qcc2CKMqSuFty0r8bE-338" value="" style="rounded=0;whiteSpace=wrap;html=1;" vertex="1" parent="1">
          <mxGeometry x="116.5" y="1766" width="553.5" height="189" as="geometry" />
        </mxCell>
        <mxCell id="A9qcc2CKMqSuFty0r8bE-339" value="&lt;h1&gt;&lt;span style=&quot;font-size: 12px; font-weight: normal;&quot;&gt;Lorem ipsum dolor sit amet, consectetur adipisicing elit, sed do eiusmod tempor incididunt ut labore et dolore magna aliqua.&lt;/span&gt;&lt;br&gt;&lt;/h1&gt;" style="text;html=1;strokeColor=none;fillColor=none;spacing=5;spacingTop=-20;whiteSpace=wrap;overflow=hidden;rounded=0;" vertex="1" parent="1">
          <mxGeometry x="460" y="1780" width="188" height="120" as="geometry" />
        </mxCell>
        <mxCell id="A9qcc2CKMqSuFty0r8bE-340" value="" style="rounded=1;whiteSpace=wrap;html=1;" vertex="1" parent="1">
          <mxGeometry x="695" y="1766" width="10" height="210" as="geometry" />
        </mxCell>
        <mxCell id="A9qcc2CKMqSuFty0r8bE-341" value="" style="rounded=1;whiteSpace=wrap;html=1;arcSize=50;fillColor=#CCCCCC;" vertex="1" parent="1">
          <mxGeometry x="695" y="1766" width="10" height="15" as="geometry" />
        </mxCell>
        <mxCell id="A9qcc2CKMqSuFty0r8bE-342" value="" style="rounded=0;whiteSpace=wrap;html=1;" vertex="1" parent="1">
          <mxGeometry x="130" y="1786" width="300" height="149" as="geometry" />
        </mxCell>
        <mxCell id="A9qcc2CKMqSuFty0r8bE-343" value="" style="endArrow=none;html=1;rounded=0;exitX=0;exitY=1;exitDx=0;exitDy=0;entryX=1;entryY=0;entryDx=0;entryDy=0;" edge="1" parent="1" source="A9qcc2CKMqSuFty0r8bE-342" target="A9qcc2CKMqSuFty0r8bE-342">
          <mxGeometry width="50" height="50" relative="1" as="geometry">
            <mxPoint x="570" y="1720" as="sourcePoint" />
            <mxPoint x="620" y="1670" as="targetPoint" />
          </mxGeometry>
        </mxCell>
        <mxCell id="A9qcc2CKMqSuFty0r8bE-344" value="" style="endArrow=none;html=1;rounded=0;exitX=0;exitY=0;exitDx=0;exitDy=0;entryX=1;entryY=1;entryDx=0;entryDy=0;" edge="1" parent="1" source="A9qcc2CKMqSuFty0r8bE-342" target="A9qcc2CKMqSuFty0r8bE-342">
          <mxGeometry width="50" height="50" relative="1" as="geometry">
            <mxPoint x="570" y="1720" as="sourcePoint" />
            <mxPoint x="620" y="1670" as="targetPoint" />
          </mxGeometry>
        </mxCell>
        <mxCell id="A9qcc2CKMqSuFty0r8bE-345" value="name" style="text;html=1;strokeColor=none;fillColor=none;align=center;verticalAlign=middle;whiteSpace=wrap;rounded=0;" vertex="1" parent="1">
          <mxGeometry x="2032.5" y="120" width="60" height="30" as="geometry" />
        </mxCell>
        <mxCell id="A9qcc2CKMqSuFty0r8bE-346" value="name" style="text;html=1;strokeColor=none;fillColor=none;align=center;verticalAlign=middle;whiteSpace=wrap;rounded=0;" vertex="1" parent="1">
          <mxGeometry x="3727.5" y="1125" width="60" height="30" as="geometry" />
        </mxCell>
        <mxCell id="A9qcc2CKMqSuFty0r8bE-347" value="name" style="text;html=1;strokeColor=none;fillColor=none;align=center;verticalAlign=middle;whiteSpace=wrap;rounded=0;" vertex="1" parent="1">
          <mxGeometry x="3725" y="120" width="60" height="30" as="geometry" />
        </mxCell>
        <mxCell id="A9qcc2CKMqSuFty0r8bE-348" value="name" style="text;html=1;strokeColor=none;fillColor=none;align=center;verticalAlign=middle;whiteSpace=wrap;rounded=0;" vertex="1" parent="1">
          <mxGeometry x="3725" y="645" width="60" height="30" as="geometry" />
        </mxCell>
        <mxCell id="A9qcc2CKMqSuFty0r8bE-349" value="name" style="text;html=1;strokeColor=none;fillColor=none;align=center;verticalAlign=middle;whiteSpace=wrap;rounded=0;" vertex="1" parent="1">
          <mxGeometry x="3725" y="-447" width="60" height="30" as="geometry" />
        </mxCell>
        <mxCell id="A9qcc2CKMqSuFty0r8bE-350" value="name" style="text;html=1;strokeColor=none;fillColor=none;align=center;verticalAlign=middle;whiteSpace=wrap;rounded=0;" vertex="1" parent="1">
          <mxGeometry x="3725" y="-902" width="60" height="30" as="geometry" />
        </mxCell>
        <mxCell id="A9qcc2CKMqSuFty0r8bE-351" value="name" style="text;html=1;strokeColor=none;fillColor=none;align=center;verticalAlign=middle;whiteSpace=wrap;rounded=0;" vertex="1" parent="1">
          <mxGeometry x="4533" y="120" width="60" height="30" as="geometry" />
        </mxCell>
      </root>
    </mxGraphModel>
  </diagram>
</mxfile>
